<svg xmlns="http://www.w3.org/2000/svg" fill="none" viewBox="0 0 515 457" class="mx-auto w-full md:w-4/5 lg:w-3/5">
   <g clip-path="url(#remote-worker_svg__a)">
      <path fill="#FFA955" d="M333.631 52.14c.27.4.53.79.78 1.14.14.17.21.37.41.41 12.66 2.67 18.09 6.3 19.82 7.46 4.85 3.25 8.04 6.65 10.43 10.04.01.02.02.04.05.06l.26.36.22.55.04.69c-.02.32-.26 1.81-.29 1.91 0 0-.14.31-.29.66.35.62.89 1.66 1.5 3.13 2.42-.46 4.52-.69 6.9-.41 1.13.14 2.21.37 3.24.68 1.82-2.38 7.52-9.58 11.53-15.78 7.9-12.22 10.42-21.71 11.28-28.35.16-1.17-.04-6.45-2.48-6.29-.4.02-1.65.11-4.26 2.39-.09.07-.12.21-.24.22-.06 0-.12.01-.16.01a94 94 0 0 1-9.03 10.7c6.38-9.07 14.11-22.59 15.42-32.19.81-5.86-.32-5.92-1.13-5.92-8.15.01-35.21 25.56-42.05 30.8-1.66 1.28-3.88-.76-2.52-2.57.55-.71 2.79-3.4 3.33-6.09-5.56 1.38-22.32 10.52-36.17 22.98 2.74 0 5.58.14 8.49.43 2.62.27 3.93 1.6 4.91 2.98zM352.83 177.18c-6.12 6.61-14.74 16.09-25.47 21.42 1.36 3.92 2.3 9.69 2.49 14.77.27 7.58-.97 15.16-1.43 18.03-.07-6.22-.4-10.4-.96-15.03-1.46 3.05-3.55 7.64-4.47 11.2-.72 2.83-.73 5.1-.51 6.77.14.31.26.61.41.91 2.32 5.05 6.03 7.75 8.09 9.03 12.3-15.67 28.17-28.04 39.46-34.07 5.65-3.02 11.22-6.41 15.88-9.59-8.7-5.92-12.59-17.49-13.33-30.68-.21-4.09-.16-8.45.81-13.67-1.39 1.77-2.94 3.64-4.67 5.61-2.07 2.36-3.98 4.32-4.53 4.86 8.55-10.43 17.77-25.13 19.72-35.67.01-.04.05-.99.86-1.3.65-.26 1.12.11 1.2.17 2.27 1.74 2.94 2.22 3.23 2.44.22-4.18.12-7.48-.04-9.76a18.6 18.6 0 0 1-7.68 6.32c-.6 1.49-3.68 1.13-9.56 2.23-.72.12-7.21.03-8.81.09-8.21.27-16-1.18-17.93-10.73-.22-1.15-3.46-17.68-3.56-18.46-1.08-7.85 3.46-14.96 10.56-17.47a18.9 18.9 0 0 1 5.29-3.7c-.14-.25-.26-.46-.38-.65a6 6 0 0 1-.96-.02c-.82-.07-.99-.06-1.07-.07l-.42-.11-.36-.19-.38-.36s-.12-.16-.29-.38c-1.22-1.68-7.93-9.89-25.49-13.14-.21-.04-.36.11-.56.25-.37.26-.77.6-1.22.98-2.07 1.71-5.14 4.06-11.77 4.16-.14.01-.26.01-.4.01-1.63 1.14-4.18 3.1-8.75 6.87-1.6 1.33-4.9 4.16-7.72 6.84-.04.02-.14.14-.14.14.05-.1 2.46-3.25 5.11-6.28 1.51-1.71 4.13-4.67 7.58-7.46-5.93.25-12.11.84-17.04 2.18-2.56.69-4.79 1.55-6.37 2.72-.62.83-1.63 2.25-3.05 4.49-1.18 1.87-5.83 7.95-9.14 17.58.87-5.89 2.41-10.6 3.78-13.88-12.07 12.77-17.64 24.94-18.59 31.66.92-.07 1.91-.06 2.88.11 4.01.71 6.08 3.09 6.92 4.04-2.84-.68-5.79-.96-9.23 1.79-.09.06-.16.12-.22.17.84 3.52 2.57 6.59 3.85 8.5.22-.38.5-.78.82-1.19.2-.24.43-.45.53-.53.34 1.66.51 2.75.6 3.55.67-.41 1.5-.82 2.46-1.1 4.49-1.36 9.32.48 11.75 5.15.11.21.22.42.32.63-.15-.76-.32-1.5-.52-2.22-1.85-6.5-5.06-10.78-6.35-12.54 2.39 2.49 9.48 9.96 9.78 21.04.02.63 0 1.27-.05 1.87 3.54-1.63 12.2-4.57 19.29 1.15.2.16 1.44 1.15 1.34 3-.05.73-.31 1.39-.62 1.94 9.75-1.04 18.95-2.97 24.8-5.63.32-.26.65-.52.98-.78a95 95 0 0 0 3-2.56c-1.71-.24-3.61-.74-5.6-1.68 4.4-.17 12.66-1.54 14.16-1.89 5.56-1.32 8.66-3.65 10.86-5.53-.87 1.17-4.23 5.92-11.18 8.26-.06.01-.52.2-1.27.4-2.89 12.89-15.4 27.97-26.02 37.46-6.4 5.71-11.71 11.19-16.08 16.18 8 4 16.22 5.06 25.27 1.96 7.23-2.48 15.71-7.74 30.08-20.6zm-59.27-69.49c.45-1.74 1.28-2.95 1.44-3.19.38-.53 3.02-5.42 12.97-5.96 4.04-.21 10.86.58 18.31 3.92-15.94-.55-23.26 5.11-23.9 5.51-1.36.84-3.28 1.76-4.11 2.3-.79.5-.81.48-1.59.99-.94.61-.97.57-3.1 2.33-.21-.89-.78-2.97-.02-5.91zm1.06 23.65c-.4-1.3-1.3-5.65.19-11.03-.27 6.25 1.39 11.5 2.17 13.43 2.1 5.1 5.84 7.08 6.72 7.61-2.51-1.01-7.02-3.28-9.08-10zm35.33.83c-1.68 1.54-4.03 3.51-5.15 5.62 0-.57.07-1.14.19-1.7-1.3 1.2-2.78 2.1-4.14 2.73-.74.58-1.6 1.03-2.54 1.3-4.19 1.19-8.71-1.54-10.04-6.18a9.16 9.16 0 0 1-.14-4.55c-.01.02-.02.06-.05.1-.26.76-.61 1.33-.98 1.97 1.7 5.45 3.88 7.69 4.26 8.16-.04-.02-4.08-2.2-5.83-6.63-1.81-2.46-1.39-4.44-.93-6.13.07-2.13.51-4.48 1.43-6.86-.2 1.43-.26 2.79-.22 4.06 1.82-3.16 4.85-5.62 7.08-6.56 3.24-1.36 8.66-2.49 12.43.32.31.24.61.47.87.72-.77-1.54-1.95-3.04-3.81-4.16-.46-.26-.47-.26-.94-.46.46.09 7.73 1.5 8.14 11.27.01.24.17 1.9-.43 4.14 3.69-3.05 9.41-4.7 9.85-4.81-5.42 3.8-6.35 5.15-9.03 7.64z"></path>
      <path fill="url(#remote-worker_svg__b)" d="M264.479 117.92s-10.07-.63-.22 14.93c0 0 2.8 7.39 2.66 9.99l-2.35 6.26s-8.23 17.54 7.59 26.33c0 0 7.21-18.18 10.93-28.01 0 0 .02-26.9-18.6-29.51z"></path>
      <path fill="url(#remote-worker_svg__c)" d="M355.94 174.28c-6.7 6.21-15.52 14.95-15.52 14.95 34.65-36.21 25.78-55.38 25.78-55.38-9.09-12.52-5.93-18.85-10.13-16.53-.34-1.01-2.59-1.37-2.97-2.43 10.26-6.84 31.67-75.35 28.8-71.28-16.86 23.82-33.34 33.71-50.4 44.5-10.21 6.46-38.32 6.8-37.58 21.67 0 0-5.22 23.58 9.08 32.12 0 0 2.05 4.16-1.19 10.15 0 0 20.25-1.69 35.91-8.64-5.2 15.7-20.77 29.96-20.77 29.96-12.13 11.13-20.77 21.6-20.77 21.6 7.66 9.98 28.29 3.65 28.29 3.65l2.67 1.36 1.43 13.23c-19.44 24.54 5.12 32.07 5.12 32.07 8.93-17.23 35.32-32.51 35.32-32.51-9.2-5.86-13.07-38.51-13.07-38.51z"></path>
      <path fill="#B6B6B7" d="M283.049 75.45c1.91-2.36 5.34-4.12 9.64-5.29 6.41-1.74 14.83-2.31 22.23-2.43.48 0 .96-.02 1.39-.06.14-.07.26-.14.4-.21l.09.16c4.98-.52 7.01-2.74 8.57-3.97 1.3-1.02 2.46-1.5 3.82-1.24 18.12 3.35 25.57 11.73 27.47 14.18.06.01.14.01.21.02.45.04.45.01 1.36-.09.68-.07 1.35.25 1.72.83.27.43.76 1.15 1.34 2.27.56-.15.89-.2.89-.2.26-.05.51-.1.76-.15-.77-1.76-1.35-2.59-1.5-2.87l-.16-.42-.07-.52.14-.74.24-.41s.04-.09.06-.12c.07-.16.15-.34.21-.46l.1-.69c-2.16-3-5.04-6.02-9.34-8.9-1.61-1.08-6.71-4.42-18.55-6.92-1.08-.22-1.86-.87-2.54-1.77-.3-.38-.56-.82-.88-1.27-.47-.65-1.07-1.3-2.31-1.43-4.19-.43-8.24-.52-12.07-.32-.22.17-.4.17-.89.17-.01 0-.12-.05-.27-.11-13.57.91-24.39 5.36-29.93 10.63-.01.09-.11.38-.16.58 0 .05-.01.11-.01.16 13.46-7.95 26.11-9.64 33.41-10.16 2.75-.2 4.49.02 5.6.38.96.31 1.51.76 1.85 1.18.96 1.2.41 2.52.29 2.79-2.72 5.62-8.65 5.78-8.65 5.78h-.07c-10.63-.41-24.22 3.18-24.78 3.34-8.5 2.58-12.88 6.44-14.59 8.29-.27.36-.57.72-.89 1.07-1.94 2.1-1.76 4.33-1.05 5.7 2.12-2.26 4.44-4.53 6.95-6.79z"></path>
      <path fill="#B6B6B7" d="M292.031 65s14.28-3.83 25.42-3.41c.46-.02 4.57-.37 6.58-4.36v-.02s.01 0 .01-.01c.02-.02.07-.14.07-.14s.09-.35-.26-.57c-.76-.48-2.31-.74-5.29-.52-7.44.52-20.62 2.3-34.42 11.07-.1.19-.24.36-.36.51-.56.58-1.04 1.15-1.48 1.7 2.44-1.49 5.63-3 9.69-4.23.01 0 .02-.01.02-.01z"></path>
      <path fill="url(#remote-worker_svg__d)" d="M311.16 176.95c9.02-8.07 19.58-20.25 23.7-31.49-3.67 3.28-8.28 6.68-12.52 9.59-7.89 12.35-37.84 49.31-37.84 49.31-.32.4-.86.53-1.3.34-.47-.19-.76-.66-.69-1.15.5-5.09 3.61-15.08 5.74-21.49-.63.72-1.27 1.45-1.89 2.21-2.02 6.04-4.7 16.23-5.45 27.56 4.65-7.4 14.11-20.46 30.25-34.87z"></path>
      <path fill="#377544" d="M314.169 125.58c-3.06.87-4.69 4.36-3.72 7.74.97 3.39 4.18 5.5 7.23 4.63 3.06-.87 4.69-4.36 3.72-7.74-.97-3.39-4.18-5.5-7.23-4.63m3.22 11.88c-1.99.78-4.38-.58-5.35-3.05s-.14-5.09 1.84-5.88c1.99-.78 4.38.58 5.35 3.05.97 2.46.14 5.09-1.84 5.88M280.791 147.43c.17-.66.3-1.35.4-2.07.04-1.4-.38-2.9-1.25-4.22-.07-.14-.17-.27-.26-.4-1.38-1.1-2.66-1.94-3.76-2.53-1.23-.26-2.49-.06-3.56.69-2.37 1.71-2.64 5.47-.74 8.36 1.87 2.84 5.25 3.91 7.58 2.22a4.63 4.63 0 0 0 1.6-2.06zm-2.51 1.52c-1.77.79-3.94-.51-4.85-2.9-.9-2.39-.2-4.97 1.57-5.76s3.94.51 4.85 2.9c.9 2.39.2 4.97-1.57 5.76"></path>
      <path fill="#fff" d="M267.29 138.2c-.22-.06-.38-.1-.56-.17.3 1.89.81 3.54 1.39 4.9.07-2.36 1.09-4.54 2.92-5.86.09-.06.19-.12.27-.19-.81.07-1.86.37-3.72 1.28-.14.07-.15.07-.3.04M278.449 152.65c-.22.01-.45.01-.67.01.17.15.34.29.46.43.07-.16.15-.31.21-.45z"></path>
      <path fill="#E0A0A0" d="M303.92 176.24c5.01-6.46 9.91-12.93 13.4-17.82-3.08 2.01-5.52 3.54-6.55 4.22-5.3 3.54-10.82 7.67-16.33 12.93-1.27 4.9 1.38 5.21 2.58 5.34.46.05 2.69-.17 6.9-4.67"></path>
      <path fill="#B56262" d="M296.499 182.43c-2.69-.34-4.08-2.12-3.92-5.03l-.58.58c-1.2 3.44-4.89 14.19-6.54 21.56 3.1-3.85 8.46-10.55 14.14-17.79-2 1.02-3.06.67-3.1.67z"></path>
      <path fill="url(#remote-worker_svg__e)" d="M283.191 182.33h.04c5.38-6.48 11.87-12.82 19.9-18.74 6.94-5.12 13.54-8.76 21.17-14.34-3.91 1.28-10.05 2.85-18.96 4.02-1.48.19-3.67.43-3.87.42-.77-.06-1.22-1.03-.55-1.65.57-.53 2.46-2.11 1.1-3.75-.17-.12-.89-.72-1.9-1.28-7.31-4.06-15.71.62-16.68 1.19-.15.71-.3 1.25-.4 1.49-1.64 3.78-12.17 25.82-15.92 57.75l-.06.45c4.04-8.35 9.11-17.02 16.08-25.46.01-.04.02-.06.04-.1z"></path>
      <path fill="#fff" d="M322.739 121.61c-4.91-.16-6.81.61-8.3 1.14-.27.14-.78.41-1.4.82.16-.06.34-.11.51-.16 4.18-1.19 8.7 1.54 10.03 6.18.68 2.37.37 4.76-.63 6.69 2.43-2.35 4.6-5.86 4.53-10.98 0-.21.07-1.2-.1-2.56-1.08-.51-2.67-1.05-4.63-1.13z"></path>
      <path fill="url(#remote-worker_svg__f)" d="M464.11 396.19c6.35-4.73 8.36-17.26 4.9-25.98-3.7-9.29-11.85-11.46-14.94-12.67-7.28-2.79-13.95-5.79-17.26-7.31-1.72-.79-7.05-3.16-15.98-7.99.84 1.34 1.68 2.83 2.21 4.28-2.07-2.84-5.7-5.74-12.1-11.39-5.6-4.95-11.34-9.03-11.6-9.28-.34-.35-2.94-5.36-6.69-9.9-.31-.37-2.44-2.95-4.4-4.32-1.59-1.08-2.21-1.1-3.23-1.24-1.71-.02-6.27 1.8-14.28 10.09-1.58 1.63-1.34 1.79-2.16 3.9-3.26 8.44-7.06 12.52-8.02 13.52-1.74 2.69.92 4.4 2.49 5.29 8.96.04 14.69-11.69 15.1-12.12.67-.69 1.76-.22 5.56-3.08 2.46-1.85 3.73-3.35 5.25-5.5-.1.25-1.6 4.48-5.26 7.93.93.27 1.94.27 2.12.27 2.05 0 4.03-.93 4.08-.96-.24.22-3.31 3.5-7.27 2.57-.37-.09-.67-.19-.89-.27-.47.32-.97.65-1.5.93-.21.55-.6 1.48-1.18 2.61 2.08-.47 5.52-1.3 10-2.52 3.34-.91 3.23-1.2 4.68-1.8 4.03-1.64 8.03.14 8.42.34-.25-.05-1.72-.31-3.6-.05-3.34.45-4.37 1.97-6.15 3.06-2.85 1.75-6.5 2.66-7.1 2.8-3.8.94-7.57 1.44-8.23 1.53-.02 0-.05.01-.1.01-1.86 2.54-4.62 5.22-8.6 6.81-1.43.57-3.05.93-4.39 1.03l-8.59 14.1c1.34.17 3.8.14 7.75-1.35 1.13-.42 1.12-.46 1.22-.48 4.89-1.32 17.78-4.6 19.32-5 .25-.06 8.44-2.82 10.31-3.14 1.63-.27 3.28-.47 4.9-.74-1.46.77-2.9 1.61-4.38 2.38-1.63.86-9.84 3.66-10.03 3.71-.09.02-7.01 1.86-10.41 2.75-4.69 1.22-4.86.68-9.37 2.48-1.2.48-6.28 2.53-10.56 1.56.04.04.05.07.09.11.04.05-.36 4.54 5.42 6.4 2.94.94 3.02.36 10.87.12 6.04-.19 6.04-.11 6.56-.19.74-.1.73-.16 9.32-1.41.38-.05 3.85-.56 4.9-.63.41-.04.83-.07 1.24-.06 1.49.04 2.98.17 4.45.21-1.4.5-2.78 1.08-4.19 1.59-.86.3-2.28.57-2.49.61-2.52.47-12.18 2.07-13 2.2-.07.01-11.4.35-15.14.46.22.56.57 1.22 1.12 1.96 1.69 2.33 3.16 3.14 3.64 3.39.81.12 2 .29 10.12 1.15.56.06 1.13.2 1.69.17 2.37-.09 4.71-.32 7.08-.48 6.12-.42 6.12-.6 7.74-.42 8.46.93 14.52-.2 20.35-2.46.74-.29 3.46-1.45 5.29-2.99.37-.32.36-.33.71-.69-.51 1.24-1.2 2.35-2.05 3.34 21.39 17.22 37.53 27.21 46.22 20.77z"></path>
      <path fill="#fff" d="M345.709 368.09c.82-.62 1.58-1.34 2.33-2.05.48-.45 3.44-3.19 5.32-6.15l8.18-13.4c-1.6-.82-2.77-1.76-3.6-2.78l-4.11 6.74c-1.44 2.36-2.92 4.7-4.33 7.08-1.79 3.02-2.87 6.91-3.05 7.54-.29.99-.56 2-.74 3.02"></path>
      <path fill="url(#remote-worker_svg__g)" d="M349.771 352.21c-.25.47-.4.91-.47 1.3.84-1.38 1.69-2.73 2.53-4.11-.69.69-1.41 1.61-2.06 2.8z"></path>
      <path fill="#fff" d="M385.689 306.86s.02 0 .05.01l17.92-29.37c.21-.34.37-.58.5-.79.1-.17.19-.29.2-.42.04-.24-.04-.5-.14-.94-.07-.32-.32-.56-.56-.79-.16-.17-.32-.35-.47-.52-.53-.09-1.43-.22-1.86-.3-.25.11-.43.31-.63.5-.24.22-.47.43-.71.63l-20.62 33.79c3.69-2.1 5.65-1.9 6.33-1.77z"></path>
      <path fill="url(#remote-worker_svg__h)" d="M365.8 321.45c.43-1.17.78-1.87 2.49-3.65-1.49-.51-2.28-.94-5.01-1.43-1.08-.19-2.36.07-3.34 1.02-5.34 5.04-5.41 4.98-6.14 5.89-.98 1.24-1.1 2.53-1.95 6.28-1.72 7.64-1.94 7.62-1.86 9 .12 2.06 1.14 2.68 3.87 3.65.71.25 1.39.4 1.39.4.26.07.46.12.62.17l.82-1.34c-.67-2.07-.17-4.17.97-5.7.37-.51 4.52-4.13 8.14-14.29"></path>
      <path fill="url(#remote-worker_svg__i)" d="M105.56 251.13s.52.11 1.8 1.28c2.43 2.21 6.01 6.66 8.82 14.24q.04.11.47 1.39c3.52 5.2 6.18 7.17 7.89 8.02a44 44 0 0 1 1.86-5.1c.35-.86.72-1.68 1.09-2.46l-9.39-7.61c-.11-.1-.21-.2-.3-.31l-8.25-10.91c-.09-.12-.16-.25-.22-.4-5.31-12.59-11.03-11.61-11.03-11.61-.05.01-.11.02-.16.02-1.13.16-1.19 1.22-1.17 2.1.01 1.27.38 2.48.5 2.82 1.14 2.42 2.88 5.65 3.75 7.21 1.2.1 2.63.5 4.34 1.32"></path>
      <path fill="url(#remote-worker_svg__j)" d="m112.579 247.67 7.97 10.56 8.57 6.95c1.23-2.36 2.18-3.96 2.38-4.29.6-.99 1.1-1.8 1.61-2.53-3.47-2.73-4.18-3.81-12.41-10.67-.07-.06-.14-.14-.21-.2l-9.99-11.4c-.09-.1-.16-.21-.24-.34 0 0-2.49-4.59-5.76-8.46-1.95-2.3-4.09-4.44-6.17-4.75-1.99-.31-3.51.76-3.92 2.64-.47 2.31.46 5.45 3.24 8.93 1.29-.24 8.74-.87 14.91 13.56z"></path>
      <path fill="#546294" d="M490.86 319.19c-6.94-11.9-14.07-24.01-19.57-41.54-11.63-37.14-20.93-45.56-21.87-46.34-15.06-7.88-29.12-10.12-29.12-10.12-.12-.02-.26-.05-.36-.1-1.4.41-2.77.81-4.14 1.19-11.82 3.24-21.13 8.3-22.77 9.21-3.88 2.13-29.82 18.08-47.47 21.24-4.68.83-6.37.25-6.65.12 2.32.58 8.95-.89 20.46-6.59 17.68-8.76 29.26-16.51 33.2-18.61 10.56-5.6 20.72-8.62 24.67-9.42.84-.17 1.69-.32 2.53-.43.34-.17.72-.25 1.12-.19 0 0 .02.01.09.02 7.68-.93 14.11.04 14.21.05-2.9.36-5.45.84-7.77 1.38 4.7 1.22 11.5 3.31 18.86 6.69 1.6-4.36 3.37-14.65-13.72-26.01-5.93-3.93-11.45-6.13-11.48-6.14-.01 0-3.91-1.79-6.96-6.39-2.44-3.71-2.41-5.98-3.19-7.54-4.28-8.57-22.71-5.74-34.08-2.51 2.78 14.38 9.12 19.22 12.71 21.22 3.95-2.87 6.94-5.41 8.28-7.13 3.04-3.9 1.39-5.81-.47-7.26 7.26 3.31 1.23 11.63-6.49 17.64-.12.17-.24.26-.46.35-.05.05-.11.09-.17.14-8.72 6.59-17.27 10.73-20.63 12.73-17.51 10.37-30.14 24.64-35.16 30.93-1.44 1.81-1.68 2.37-2.43 2.61-.82.25-1.44-.1-3.16-1.19-2.33-1.48-10.79-7.26-11.35-19.59-.11-2.38-.02-5.39 1.04-10.05.79-3.41 2.52-7.72 3.9-10.29-.29.99-1.77 5.94-2.07 12.78-.07 1.33-.07 3.35.15 5.67.81-3.54 2.38-7.11 4.53-10.24.78-1.14 1.51-2.06 2.02-2.64-.41-3-1.33-8.65-2.94-12.78-1.6.63-3.24 1.17-4.93 1.58-4.94 5.25-6.19 8.51-7.23 10.73-.24.52-3.18 3.51-6.37 8.74-1.89 3.11-3.16 5.86-3.98 8.29.02.42-.1.84-.36 1.19-2.75 9.69 2.13 13.83 3.55 15.04 3.41 2.9 6.8 3.62 11.66 5.73 2.01.88 2.03.82 2.21.91q1.63.74 3.26 1.45c-3.05.36-5.24.52-8.77-.11-.4-.07-12.73-2.67-15.7-12.73-.61-2.08-.76-4.22-.57-6.35l-17.01 15.2c-.99.88-1.87 1.9-2.62 3.02-3.13 5.15-13.18 22.57-35.46 67.93-.32.67-1.02 1.07-1.75 1.01 0 0-.97-.07-2.02.15-.67.12-1.46.31-1.8.96-.21.43-.16 1.02.1 1.81.06.16.07.32.09.5 3.03 2.12 6.09 3.14 10.05 5.92 6.08 4.29 10.09 10.55 12.38 21.44 1.48 7.04 1.3 15.29 1.33 17.42-.02-.21-1.79-15.05-5.46-24.1-6.23-15.27-16.44-13.9-23.38-20.92-.66-.67-6.17-7.2-14.47-2.98-.09.04-.17.09-.25.12 1.75 1.63 3.52 3.23 5.25 4.79.19.16 2.93 2.57 3.7 7.42.71 4.55-.31 11.51-7.8 20.91-.04.04-.07.07-.1.11 0 0-4.27 4.54-9.85 7.31-6.01 2.97-13.41 3.92-19.07-3.72a.3.3 0 0 1-.06-.09s-.53-.82-1.45-2.23c-2.37 8.45-1.69 14.36.2 18.45 3.02 6.51 9.01 8.18 9.01 8.18.24.06.45.16.63.31 14.01 10.72 23.26 17.88 30.26 22.01 4.91 2.89 8.62 4.27 12.13 4.19 3.5-.06 6.77-1.56 10.83-4.14 7.57-4.83 14.63-13.95 20.4-23.1 7.9-12.54 13.39-25.23 14.43-27.68-.45-8.61-.84-14.17-.84-14.17-.3-2.03-2.1-8.74-2.42-23.59-.19-8.92.74-18.97.91-20.61.65-7.05 1.25-11.19 2.07-16.13.77-4.62 1.59-8.82 2.13-11.24-.24 1.92-1.18 9.91-1.75 24.17-.38 9.68-.31 23.08.73 33.55 1.01 10.16 1.65 11.49 1.91 13.36 0 0 .41 5.7.87 14.52.05.2.05.41.04.62.87 17.2 1.85 45.66.31 67.26-.06.92 0 .94-.38 1.77-3.34 6.87-13.02 30.19-7.38 44.01.01.04.02.07.04.11.07.05.11.11.09.19.05.11.09.2.14.3 2.23 1.9 8.3 5.04 20.22 7.85 17.95 4.26 39.22 5.46 45.87 5.84-.29.01-.27.12-6.55-.01-38.84-.78-54.27-6.55-59.72-9.57-.62 3.78-1.43 9.84-.6 14.34 4.47 4.9 48.4 11.18 95.18 12.47 19.33.53 37.33.14 51.33-1.36 18.15-1.95 23.77-5.12 25.75-6.39.5-1.45 1.87-6.5.43-13.65-11.76 2.87-25.45 4.47-27.72 4.73-22.52 2.64-39.58 1.96-44.3 1.81.68-.01 32.46.17 66.43-8.65.51-.12 3.71-.96 6.34-1.77 1.43-1.01 3.59-3.09 4.88-5.7 2.59-5.26.96-9.6.82-10.4-.02-.19-2.01-28.4-1.23-39.38.01-.16.09-1.38.26-2.54-.1-.05-.21-.1-.32-.15-2.15-.27-14.44-2.36-24.1-15.24-2.75-3.65-5.79-8.72-7.83-14.37-3.66-2.67-7.51-5.61-11.5-8.78-1.7 1.27-3.59 2.17-5.32 2.72-8.18 2.58-16.48 1.13-17.05 1.17q-1.13.06-14.13.96s-11.94-1.36-12.9-1.72c-.15-.06-4.19-1.99-5.27-5.88-.1-.35-.4-1.38-.31-2.8-1.97-.46-6.96-2.13-8.18-7.12-1.18 1.3-2.2 2.23-2.46 2.49-1.01.92-2.01 1.86-3.14 2.64l-.36.19-.45.11c-.1.02-.31.05-.38.05-.35.2-.78.19-1.13-.02s-.55-.6-.55-.99c-.02-.07-.1-.26-.14-.37l-.1-.45v-.4c.19-1.36.57-2.68.93-4 .19-.68 1.36-4.85 3.28-8.09.01 0 .02-.01.02-.02-.52-.72-1.49-2.48-.93-4.65 1.23-4.85 6.89-6.01 7.46-6.03l.53-.87c-.42.1-.89.19-1.44.24-3.49.38-8.28-2.73-6.43-9.7.94-3.56 2.37-10.61 2.79-11.77a9.3 9.3 0 0 1 2.28-3.5c.5-.46 5.83-5.52 6.17-5.78a7.51 7.51 0 0 1 6.6-1.3l6.68 1.89c1.24-1.17 2.41-2.17 3.47-3.04l23.39-38.32c.09-.12.19-.24.31-.32.4-.3.76-.69 1.15-1.02.41-.32.83-.57 1.34-.68h.48c.35.04 2.08.31 2.46.37l.19.04.4.21.21.21c.31.41.71.76 1.02 1.15.32.41.57.84.68 1.34.2.82.25 1.33.2 1.75-.07.61-.37 1.08-1.01 2.12l-17.56 28.74c1.25.52 2.92 1.55 4.93 3.59 4.53 4.63 8.1 11.15 8.95 12.68.16.11.46.31 1.04.76.58.42 1.45 1.09 2.73 2.12 8.46 6.81 11.1 10.16 11.92 11.19.17.22.65.81 1.27 1.64 3.04 1.41 9.53 4.37 15.98 7.23 1.25-1.39 2.95-2.51 4.98-3.31-2.41-5.77-6.6-13.28-9.83-18.77-5.72-4.24-10.57-7.05-11.56-7.62-4.19-2.42-6.68-3.26-8.07-3.59.37 1.18 1.15 2.42 1.41 2.83 2.39 3.7 6.65 7.37 7.42 8.08-.4-.26-10.16-5.89-11.45-11.39-.57-2.48 1.29-2.32 2.25-2.28 5.77.26 12.58 5.25 16.97 8.95-.1-.17-.21-.33-.3-.5-.2-.3-.22-.29-.96-2.43-1.89-5.5-8.88-26.6-3.71-47.5 5.35-21.56 19.16-31.83 19.65-32.22-4.86 4.73-15.37 18.51-17.42 39.85-.46 4.84-2.12 18.88 5.32 39.93.3.83.42.77 3.49 5.94 6.56 11.17 9.27 17.27 10.29 19.72 5.65-1.12 12.83-.35 19.8 2.82 1.82-.21 7.47-.47 13.34 2.31 5.77 2.7 8.65 6.89 9.47 8-.31-.34-6.74-8.56-18.67-8.15 11.1 6.71 16.03 16.85 18.25 21.79-.57-.86-13.59-22.1-34.28-23.71-3.41-.27-6.28.1-8.45.71-2.2.61-3.57 1.45-4.4 2.12 2.87 1.25 5.6 2.43 7.88 3.37 11.74 4.88 13.13 4.59 17.26 7.4 13.18 8.92 11.91 28.44 5.38 36.86-7.62 9.78-20.17 5.83-36.57-5.2 1.58 3.18 3.4 6.02 5.09 8.28 9.54 12.69 21.85 13.83 21.85 13.83.2.01.4.06.58.15 23.84 10.71 34.59 1.99 34.59 1.99.07-.06.16-.12.25-.17 10.04-5.92 14.26-15.96 15.78-25.85 2.32-15.04-1.59-29.78-1.68-30.1-4.57-16.4-11.17-27.88-17.95-39.56z"></path>
      <path fill="#B6B6B7" d="M365.839 80.73c-4.44 2.09-6.33 2.82-8.23 4.33-2.36 1.86-4.83 5.12-5.55 9.53-.29 1.78-.96 5.6-.19 9.5q0 .08.18.93s-1.26-1.48-2.12-3.04c-.59-1.09-1.25-3.12-1.4-4.11 0-.05-.5-2.14.27-5.36-.43.61-.83 1.28-1.18 2.04-1.42 2.97-1.99 7.34.04 11.59 7.92 16.66 7.88 16.69 8.41 17.59 4.09 6.8 12.05 9.14 18.66 6.81s7.26-2.62 7.86-2.91c1.36-.65 2.28-1.3 2.82-1.76-2.19.99-6.46 2.91-7.57 3.24-6.99 2.05-15.3-.7-18.75-8.92.31.54 2.78 5.55 9.22 7.37 5.27 1.48 9.62-.65 10.36-1.01 6.96-3.42 7.05-3.26 8.81-4.48 6.74-4.62 8.46-13.22 5.42-19.59-.69-1.44-6.95-14.64-7.37-15.37-4.46-7.68-13.47-9.31-19.73-6.37z"></path>
      <path fill="url(#remote-worker_svg__k)" d="M206.199 359.28c4.67-2.32 8.3-6.01 8.78-6.5 6.46-8.14 7.62-14.08 7-18.03-.55-3.51-2.48-5.24-2.48-5.24l-.04-.04c-11.74-10.61-24.62-22.84-32.67-32.22-.3.34-.61.67-.96 1.01-.48.47-2.77 2.44-5.55 3.4.48-.36 2.82-2.13 4.79-5.74 1.75-3.15 2.42-7.49 1.95-11.45-2.26-18.74-11.03-26.12-14.75-30.18-5.98-6.51-8.47-10.71-10.25-17.47-.04-.17-.24-1.25-.88-2.64-.87-1.84-1.66-2.02-1.89-2.07-1.18-.26-2.84 1.34-3.04 1.53-1.25 2.03-5.79 10.27-.34 16.65 1.46 1.7 1.96 1.48 3.7 4.04a23.9 23.9 0 0 1 3.15 6.91c.16.29.25.62.25.96.57 2.39.82 4.91.71 7.44-.05.79-.09.78-.31 1.54-.74 2.52-.61 5.58-.26 7.9.86 5.65 3.75 10.03 4.24 10.81-1.66-1.53-5.36-4.91-6.96-10.63-1.28-4.55-.17-8.5.12-9.47h-.01c.01-.61.11-3.13-.61-6.29-1.79-1.05-9.58-5.82-17.06-13.19-1.2-.94-15.06-11.85-18.61-17.93-1.54-2.63-4.31-6.55-7.58-9.36-1.97-1.69-4.11-2.99-6.29-3.14 0 0-1.38-.16-2.05.86-.62.97-.57 2.61.52 5.48.1.29.14.57.1.84 2.3 3.06 4.01 6.04 4.42 6.77l9.78 11.15c8.13 6.77 8.77 7.83 12.28 10.57.62-.69 1.38-1.45 2.3-2.38-2.1 5.09-2.02 5.11-4.03 8.92-3.57 6.74-5.56 11.28-6.14 12.47-1.74 3.7-2.8 5.52-4.6 9.48.19-1.6.43-3.08.72-4.42-1.63-.68-5.24-2.68-9.59-8.97-.92-1.33-.76-1.41-1.46-3.26-3.57-9.33-8.1-12.71-8.4-12.93-.53-.24-2.41-1.13-3.69-1.07-.1.02-.19.04-.29.04-.04.01-.07.01-.11.02-.67.17-.72 1.09-.73 1.49 2.12 6.09 6.74 15.11 7.37 16.7.61 1.55 3.52 8.55 7.67 13.98 4.62 6.06 7.15 6.2 25.71 20.86 13.74 10.86 21.39 7.84 25.75 5.57.32-.17 2.1-1.02 4.7-3.1.92-.73 1.8-1.66 1.94-1.82-.53 1.79-1.22 3.83-3.65 6.46-1.02 1.08-2.43 2.13-4.23 2.93.72.89 1.58 2.06 2.54 3.41 7.77 10.88 23.66 35.47 24.51 36.75 4.29 5.76 9.95 4.84 14.52 2.58zm-61.04-77.31c-1.95 3.16-4.69 7.54-6.41 11.7 1.27-6.34 4.36-13.03 5.12-14.68 3.42-7.36 6.41-10.05 9.68-13.09-3.29 8.47-3.61 8.34-8.39 16.07"></path>
      <path fill="#fff" d="M309.61 128.03s.19 11.94 5.72 11.62c0 0-2.04.76-3.97-.03 0 0-5.3-3.52-5.18-8.54 0 0 1.71-3.81 3.43-3.05"></path>
      <path fill="#5C444B" d="M317.74 49.37s23.58-16.53 15.1 2.37c0 0-11.18-4.79-15.1-2.37M336.35 34.61s12.52-4.17 11.52 2.99c0 0 10.68-4.62 10.99 3.85 0 0 10.77.63 8.67 11.48 0 0 8.39-11.15 9-18.7 0 0-2.59-4.67-13.78 3.75 0 0 7.51-8.89 5.34-13.9l-10.49 6.46s2.49-5.17.52-6.76c0 0-18.55 6.15-21.78 10.82zM396.94 51.72s2.84-24.76-6.23-19.63c0 0 2.14-26.1-8.72-20.56 0 0 12.52-11.82 17.8-9.18 0 0 2.6 9.5-6.07 25.47 0 0 14.18-5.92 3.22 23.9"></path>
      <path fill="#000" d="M512.309 357.79c-4.67-16.76-11.4-28.49-18.34-40.41-6.81-11.7-13.83-23.59-19.23-40.81-12.79-40.88-23.29-48.25-23.29-48.25-.06-.05-.14-.09-.21-.14-.58-.3-1.15-.6-1.71-.88 1.51-4.06 2.89-10.87-2.72-19.12-2.51-3.67-6.22-7.16-10.5-10.22-4.29-3.05-9.13-5.7-13.88-7.69-.53-.34-2.56-1.46-4.47-3.86-1.29-1.64-2.15-3.4-2.63-4.79-.45-1.29-.98-6.71-7.98-9.53-9.93-4-26.28.12-31.12 1.48-.19-1.35-.35-2.78-.47-4.28-.35-4.28-.6-12.8-.6-13.23-.01-.71-.01-1.19-.01-1.54 8.91-11.79 10.81-19.13 11.49-22.26 3.18 3.46 3.14 3.67 3.85 3.78.07.01.53.09.96-.25.53-.41.5-1.13.51-1.22.55-7.08-.16-14.01-.38-15.56l-1.99 3.6c.16 2.28.26 5.58.04 9.76-.29-.22-.96-.71-3.23-2.44-.09-.06-.56-.43-1.2-.17-.81.31-.84 1.27-.86 1.3-1.95 10.55-11.17 25.24-19.72 35.67.55-.55 2.46-2.51 4.53-4.86 1.72-1.97 3.28-3.83 4.67-5.61-.97 5.22-1.02 9.58-.81 13.67.73 13.19 4.63 24.77 13.33 30.68-4.67 3.18-10.24 6.58-15.88 9.59-11.29 6.03-27.16 18.4-39.46 34.07-2.06-1.28-5.77-3.98-8.09-9.03-.15-.3-.27-.6-.41-.91-.22-1.68-.21-3.95.51-6.77.92-3.56 3-8.15 4.47-11.2.56 4.63.88 8.81.96 15.03.46-2.87 1.7-10.45 1.43-18.03-.2-5.07-1.13-10.84-2.49-14.77 10.73-5.32 19.36-14.8 25.47-21.42-14.37 12.85-22.84 18.12-30.08 20.6-9.06 3.1-17.27 2.03-25.27-1.96 4.37-4.99 9.68-10.47 16.08-16.18 10.62-9.49 23.13-24.57 26.02-37.46.74-.2 1.2-.38 1.27-.4 6.95-2.35 10.31-7.1 11.18-8.26-2.2 1.89-5.3 4.22-10.86 5.53-1.5.35-9.75 1.71-14.16 1.89 1.99.93 3.88 1.44 5.6 1.68-.77.68-1.76 1.54-3 2.56-.34.26-.66.52-.98.78-5.86 2.67-15.05 4.59-24.8 5.63.31-.55.57-1.2.62-1.94.1-1.85-1.14-2.84-1.34-3-7.1-5.72-15.76-2.78-19.29-1.15.05-.61.07-1.24.05-1.87-.3-11.08-7.38-18.55-9.78-21.04 1.29 1.76 4.5 6.04 6.35 12.54.2.72.37 1.46.52 2.22-.1-.21-.21-.42-.32-.63-2.43-4.67-7.26-6.51-11.75-5.15-.96.29-1.79.69-2.46 1.1-.09-.79-.26-1.89-.6-3.55-.1.09-.34.3-.53.53-.32.41-.6.81-.82 1.19-1.28-1.91-3-4.98-3.85-8.5.06-.05.14-.11.22-.17 3.44-2.74 6.39-2.47 9.23-1.79-.84-.96-2.92-3.34-6.92-4.04-.97-.17-1.96-.19-2.88-.11.94-6.73 6.51-18.9 18.59-31.66-1.38 3.29-2.92 7.99-3.78 13.88 3.31-9.63 7.97-15.71 9.14-17.58 1.43-2.25 2.43-3.66 3.05-4.49 1.58-1.17 3.81-2.02 6.37-2.72 4.93-1.34 11.1-1.94 17.04-2.18-3.45 2.79-6.07 5.74-7.58 7.46-2.66 3.03-5.06 6.18-5.11 6.27 0 0 .1-.1.14-.12 2.82-2.68 6.12-5.51 7.72-6.84 4.57-3.77 7.12-5.73 8.75-6.87.14 0 .26 0 .4-.01 6.64-.1 9.7-2.44 11.77-4.16.45-.38.84-.72 1.22-.98.2-.14.35-.29.56-.25 17.56 3.25 24.27 11.46 25.49 13.14.16.22.26.36.29.38l.38.36.36.19.42.11c.07.01.25 0 1.07.07.42.04.58.05.96.02.12.19.95 1.74 1.09 1.99l7.98-3.69c-.61-1.46-1.15-2.51-1.5-3.13.15-.35.29-.66.29-.66.02-.1.26-1.59.29-1.91l-.04-.69-.22-.55-.26-.36s-.04-.04-.05-.06c-2.39-3.39-5.58-6.79-10.43-10.04-1.72-1.15-7.16-4.79-19.82-7.46-.2-.04-.27-.24-.41-.41-.25-.35-.51-.74-.78-1.14-.98-1.38-2.3-2.7-4.91-2.98-2.9-.3-5.74-.43-8.49-.43 13.85-12.46 30.61-21.6 36.17-22.98-.53 2.69-2.78 5.39-3.33 6.09-1.36 1.81.86 3.85 2.52 2.57 6.84-5.24 33.9-30.78 42.05-30.8.81 0 1.94.06 1.13 5.92-1.32 9.59-9.05 23.12-15.42 32.19 3.08-3.13 6.22-6.79 9.03-10.7.04 0 .1-.01.16-.01.11-.01.15-.15.24-.22 2.61-2.28 3.86-2.37 4.26-2.39 2.44-.16 2.64 5.12 2.48 6.29-.86 6.64-3.37 16.13-11.28 28.35-4.01 6.2-9.7 13.4-11.53 15.78l2.56.98c7.05-8.87 17.25-20.62 21.34-35.87 1.48-5.51 1.66-9.67 1.66-9.72-.1-5.04-2.32-9.52-6.77-7.83 3.59-5.74 6.25-11.73 6.95-17.07.43-3.21.65-8.24-3.57-9.18-7.43-1.65-24.38 13.47-38.82 25.82.09-.52.11-1.04.09-1.56-.01-.27-.12-2.22-2.39-2.42-5.35-.43-27.99 12.35-43.02 26.96-14.6 1.02-26.19 5.98-32.11 11.66-.6.58-.98 1.56-1.18 2.69-.11.62-.31 1.72-.35 1.87-3.45 3.71-4.36 6.53-6.58 8.93-3.83 4.16-2.62 8.61-.89 10.89-11.92 13.6-16.82 26.29-17.09 32.56-.36 9.26 6.71 17.72 6.71 17.72.09.1.17.19.26.25.14 2.36.67 4.45 1.35 6.19-3.05 10.22-3.6 11.02-4.02 12.07-3.04 7.66 1.55 15.51 8.72 23.44-6.38 22.71-6.9 40.8-6.9 40.87 0 1.94 2.38 2.46 3.31 1.03.19-.31.15-.34.46-1.08 4.31-10.29 9.01-18.76 13.91-25.85-1.8 7.44-3.37 16.94-3.23 26.79.01.83.61 1.55 1.43 1.74.82.17 1.66-.24 2.01-.99 0 0 4.14-8.69 14.55-21.11 1.95.94 4.4 2 7.59 2.85 4.13 1.1 8.09 1.36 11.86.97a38.4 38.4 0 0 0-3.65 5.09c-.94 1.6-.96 1.63-1.65 3.25-1.05 1.17-8.03 8.83-11.06 17.71l-20.75 18.52c-1.24 1.1-2.32 2.37-3.24 3.75-.02.02-.02.04-.04.06-3.09 5.09-13.07 22.32-35.14 67.25-.76.02-1.76.15-2.73.46-1.59.51-3.02 1.53-3.59 3.25-6.82-6.86-14.55-4.94-18.87-2.33-9.37-8.71-18.61-17.79-24.77-25.08-.06-.05-.11-.11-.16-.16 1.96-3.65 2-7.22 1.72-9.85-1.7-15.81-8.93-24.73-9.36-25.29-3.59-4.85-7.8-8.05-11.56-13.6-.47-.71-3.02-4.43-4.24-9.75-1.34-5.76-5.32-9.39-10.32-5.88-.15.1-1.23.86-1.74 1.46-.06.06-1.44 2.1-2.49 5-4.33 12.06 4.11 18.04 4.58 18.39 0 0 1.08 1.08 2.23 3.15-3.25-2.22-7.92-5.7-12.45-10.19-.05-.05-.11-.1-.17-.14 0 0-14.26-10.94-17.78-16.96-1.7-2.89-4.74-7.2-8.34-10.27-2.61-2.23-5.51-3.81-8.39-4.01-.05 0-3.59-.2-5.32 2.49-.51.76-.88 1.77-.94 3.16-1.8-1.59-3.69-2.69-5.47-2.97-6.94-1.07-11.99 6.96-4.44 16.89-.56.76-.88 1.69-1.02 2.68-.33 2.47.65 5.34.65 5.34a.7.7 0 0 0 .09.17c.99 2.15 2.48 4.94 3.45 6.71-1.48 1.15-1.96 3.13-1.82 4.63.1 1.14 2.88 7.77 7.26 16.82.37.74 2.12 5.36 4.88 10.11 5.26 9.07 8.88 11.17 17.05 17.17 13.35 9.79 15.03 12.07 20.98 15.15 5.98 3.1 11.03 3.67 14.99 3 .56.56 1.72 2.18 3.3 4.42 5.48 7.67 15.03 22.21 20.41 30.47-3.77 11.22-2.85 18.82-.51 23.91 3.26 7.07 9.41 9.52 10.97 10.04 14.03 10.73 23.34 17.9 30.37 22.06 5.66 3.34 9.99 4.78 14.05 4.69 4.08-.07 7.95-1.69 12.71-4.71 7.95-5.06 15.45-14.59 21.52-24.22 5.05-8.02 9.13-16.11 11.74-21.63.71 16.39 1.25 38.95.14 57.17-.09 1.34-.07 1.38-.11 2.62-.42.89-2.18 4.67-3.77 8.88-9.44 25.1-4.68 36.29-3.55 38.77-.4 2.15-1.99 11.32-1.09 17.04.34 2.11-.21 5.47 23.36 9.54 40.71 7.04 132.07 11.68 153.96-1.29 1.69-.99 1.74-1.08 2.28-2.95 1.89-6.59.73-13.02.2-15.46 1.69-1.33 5.24-4.6 6.66-9.74 1.4-5.04 0-9-.06-9.7-.07-1.32-2.1-29.96-1.07-39.68 22.14 8.55 32.96.87 34.22-.14 10.98-6.53 15.73-17.48 17.4-28.33 2.47-15.96-1.74-31.61-1.74-31.61zM283.799 67.55c.12-.15.26-.32.36-.51 13.8-8.77 26.97-10.55 34.42-11.07 2.98-.22 4.53.04 5.29.52.35.22.26.57.26.57s-.05.11-.07.14l-.01.04c-2.01 3.98-6.12 4.33-6.58 4.36-11.14-.42-25.42 3.41-25.42 3.41s-.01.01-.02.01c-4.06 1.23-7.25 2.74-9.69 4.23.43-.55.92-1.12 1.48-1.7zm-6.64 8.99c.32-.35.62-.71.89-1.07 1.71-1.85 6.09-5.71 14.59-8.29.56-.16 14.14-3.75 24.78-3.34h.07s5.93-.16 8.65-5.78c.12-.27.67-1.59-.29-2.79-.34-.42-.89-.87-1.85-1.18-1.1-.36-2.84-.58-5.6-.38-7.31.52-19.95 2.21-33.41 10.16 0-.05.01-.11.01-.16.05-.2.15-.5.16-.58 5.53-5.27 16.35-9.73 29.93-10.63.15.06.26.11.27.11.5 0 .67 0 .89-.17 3.83-.2 7.88-.11 12.07.32 1.24.12 1.84.78 2.31 1.43.32.45.58.88.88 1.27.68.91 1.46 1.55 2.54 1.77 11.84 2.51 16.94 5.84 18.55 6.92 4.31 2.88 7.18 5.89 9.34 8.9l-.1.69c-.06.12-.14.3-.21.46-.02.04-.05.09-.06.12l-.24.41-.14.74.07.52.16.42c.15.27.73 1.1 1.5 2.87-.25.05-.5.1-.76.15 0 0-.33.05-.89.2-.58-1.12-1.07-1.84-1.34-2.27-.37-.58-1.04-.91-1.72-.83-.92.1-.92.12-1.36.09-.07-.01-.15-.01-.21-.02-1.9-2.46-9.36-10.83-27.47-14.18-1.36-.26-2.52.22-3.82 1.24-1.56 1.23-3.6 3.45-8.57 3.97l-.09-.16c-.14.07-.26.14-.4.21-.43.04-.91.06-1.39.06-7.41.12-15.82.69-22.23 2.43-4.31 1.17-7.73 2.93-9.64 5.29-2.51 2.26-4.83 4.53-6.95 6.79-.71-1.36-.88-3.6 1.05-5.7zm-4.8 62.37c1.07-.76 2.33-.96 3.56-.69 1.1.6 2.38 1.43 3.76 2.53.09.12.19.26.26.4.87 1.32 1.29 2.82 1.25 4.22-.1.72-.22 1.41-.4 2.07a4.63 4.63 0 0 1-1.6 2.06c-2.33 1.69-5.71.62-7.58-2.22-1.9-2.89-1.63-6.65.74-8.36zm6.09 13.74c-.06.14-.14.29-.21.45-.12-.15-.29-.29-.46-.43.22 0 .45 0 .67-.01zm-11.16-14.45c.15.04.16.04.3-.04 1.86-.91 2.92-1.2 3.72-1.28-.09.06-.19.12-.27.19-1.82 1.32-2.84 3.5-2.92 5.86-.58-1.36-1.09-3.02-1.39-4.9.17.07.34.11.56.17m-3.87 17.29c.58-2.06.99-2.22 2.93-10.7.78 1.34 1.48 2.21 1.69 2.48.71.92 1.74 1.94 2.98 2.84-1.17.02-2.39.26-3.73.72.71.12 1.86.26 6.2 1.82 2.08.76 3.35 1.79 3.91 2.33-.69 1.58-1.46 3.42-2.3 5.57-.06.06-.19.24-.71.71-3.49 3.1-6.55 2.9-6.8 2.9-.76-.01-1.12-.11-1.15-.11 0 0 3.14 1.86 7.21.35-1.15 3.18-2.18 6.32-3.11 9.39-5.03-6.22-8.69-12.77-7.11-18.31zm3.65 52.4.06-.45c3.75-31.93 14.28-53.96 15.92-57.75.1-.24.25-.78.4-1.49.97-.57 9.37-5.25 16.68-1.19 1.01.56 1.72 1.15 1.9 1.28 1.35 1.64-.53 3.21-1.1 3.75-.67.62-.22 1.59.55 1.65.2.01 2.39-.24 3.87-.42 8.91-1.17 15.05-2.74 18.96-4.02-7.63 5.58-14.23 9.22-21.17 14.34-8.03 5.92-14.52 12.26-19.9 18.75h-.04s-.02.05-.04.09c-6.97 8.44-12.04 17.11-16.08 25.46zm29.95-26.98c-1.2-.12-3.85-.43-2.58-5.34 5.51-5.26 11.03-9.39 16.33-12.93 1.03-.68 3.47-2.21 6.55-4.22-3.49 4.89-8.39 11.35-13.4 17.82-4.21 4.49-6.44 4.71-6.9 4.67m2.58.85c-5.68 7.25-11.04 13.95-14.14 17.79 1.65-7.37 5.34-18.13 6.54-21.56l.58-.58c-.16 2.9 1.23 4.69 3.92 5.03.04 0 1.1.35 3.1-.67zm-18.69 30.05c.74-11.33 3.42-21.52 5.45-27.56.62-.76 1.25-1.49 1.89-2.21-2.13 6.41-5.25 16.4-5.74 21.49-.06.5.22.97.69 1.15.45.2.98.06 1.3-.34 0 0 29.95-36.96 37.84-49.31 4.24-2.92 8.85-6.32 12.52-9.59-4.12 11.24-14.68 23.43-23.7 31.49-16.14 14.41-25.6 27.47-30.25 34.87zm-186.48 13.37c.41-1.89 1.94-2.95 3.92-2.64 2.07.31 4.22 2.46 6.17 4.75 3.26 3.87 5.76 8.46 5.76 8.46.07.12.15.24.24.34l9.99 11.4c.07.06.14.14.21.2 8.23 6.86 8.93 7.94 12.41 10.67-.51.73-1.02 1.54-1.61 2.53-.2.34-1.15 1.94-2.38 4.29l-8.57-6.95-7.97-10.56c-6.18-14.43-13.62-13.8-14.91-13.56-2.78-3.49-3.71-6.63-3.24-8.93zm3.04 17.43c-.11-.34-.48-1.55-.5-2.82-.02-.88.04-1.94 1.17-2.1.05 0 .11-.01.16-.02 0 0 5.72-.98 11.03 11.61.06.15.14.27.22.4l8.25 10.91c.09.11.19.21.3.31l9.39 7.61c-.37.78-.74 1.6-1.09 2.46-.37.86-1.12 2.61-1.86 5.1-1.71-.84-4.37-2.82-7.89-8.02q-.43-1.28-.47-1.39c-2.82-7.58-6.39-12.04-8.82-14.24-1.28-1.17-1.8-1.28-1.8-1.28-1.71-.82-3.14-1.22-4.34-1.32-.87-1.56-2.61-4.79-3.75-7.21m69.71 77.34c-.97-1.35-1.82-2.52-2.54-3.41 1.8-.79 3.21-1.85 4.23-2.93 2.43-2.63 3.11-4.68 3.65-6.46-.14.16-1.02 1.09-1.94 1.82-2.61 2.08-4.38 2.93-4.7 3.1-4.36 2.27-12.01 5.29-25.75-5.57-18.56-14.65-21.09-14.8-25.71-20.86-4.14-5.43-7.06-12.43-7.67-13.98-.63-1.59-5.25-10.61-7.37-16.7.01-.4.06-1.32.73-1.49.04-.01.07-.01.11-.02.1 0 .19-.01.29-.04 1.28-.06 3.15.83 3.69 1.07.3.22 4.83 3.6 8.4 12.93.71 1.85.55 1.94 1.46 3.26 4.36 6.29 7.97 8.29 9.59 8.97-.29 1.34-.53 2.82-.72 4.42 1.8-3.96 2.87-5.78 4.6-9.48.58-1.19 2.57-5.73 6.14-12.47 2.01-3.81 1.94-3.83 4.03-8.92-.92.93-1.68 1.69-2.3 2.38-3.51-2.74-4.16-3.8-12.28-10.57l-9.78-11.15c-.41-.73-2.12-3.71-4.42-6.77.04-.27 0-.56-.1-.84-1.09-2.88-1.14-4.52-.52-5.48.67-1.02 2.05-.87 2.05-.87 2.18.16 4.32 1.46 6.29 3.15 3.28 2.8 6.04 6.72 7.58 9.36 3.55 6.08 17.41 16.99 18.61 17.93 7.48 7.37 15.27 12.13 17.06 13.19.72 3.16.62 5.68.61 6.28h.01c-.3.98-1.4 4.93-.12 9.48 1.6 5.72 5.3 9.11 6.96 10.63-.5-.78-3.39-5.16-4.24-10.81-.35-2.32-.48-5.39.26-7.9.22-.76.26-.74.31-1.54.11-2.53-.14-5.05-.71-7.44 0-.33-.09-.67-.25-.96a23.9 23.9 0 0 0-3.15-6.91c-1.74-2.57-2.23-2.35-3.7-4.04-5.46-6.38-.92-14.62.34-16.65.2-.19 1.86-1.79 3.04-1.53.22.05 1.02.24 1.89 2.07.65 1.39.84 2.47.88 2.64 1.77 6.76 4.27 10.96 10.25 17.47 3.72 4.06 12.49 11.44 14.75 30.18.47 3.96-.2 8.3-1.95 11.45-1.97 3.61-4.31 5.38-4.79 5.74 2.78-.96 5.06-2.93 5.55-3.4.35-.33.66-.67.96-1.01 8.05 9.38 20.93 21.61 32.67 32.22l.04.04s1.94 1.72 2.48 5.24c.62 3.95-.53 9.89-7 18.03-.48.5-4.12 4.18-8.78 6.5-4.57 2.26-10.22 3.18-14.52-2.58-.84-1.28-16.74-25.87-24.51-36.75zm343.31 68.9c-1.53 9.89-5.74 19.93-15.78 25.85-.09.05-.17.11-.25.17 0 0-10.76 8.72-34.59-1.99-.19-.09-.38-.14-.58-.15 0 0-12.31-1.14-21.85-13.83-1.69-2.26-3.51-5.1-5.09-8.28 16.39 11.03 28.95 14.98 36.57 5.2 6.53-8.42 7.79-27.94-5.38-36.86-4.13-2.8-5.52-2.52-17.26-7.4-2.28-.94-5.01-2.12-7.88-3.37.83-.67 2.21-1.51 4.4-2.12 2.17-.61 5.04-.98 8.45-.71 20.7 1.61 33.71 22.86 34.28 23.71-2.22-4.94-7.15-15.08-18.25-21.79 11.94-.41 18.36 7.82 18.67 8.15-.82-1.12-3.7-5.3-9.47-8-5.87-2.78-11.51-2.52-13.34-2.31-6.97-3.16-14.16-3.93-19.8-2.82-1.02-2.44-3.72-8.55-10.29-19.72-3.06-5.17-3.19-5.11-3.49-5.94-7.44-21.04-5.78-35.09-5.32-39.93 2.05-21.34 12.56-35.13 17.42-39.85-.5.4-14.31 10.66-19.65 32.22-5.17 20.89 1.82 42 3.71 47.5.73 2.15.76 2.13.96 2.43.09.16.2.32.3.5-4.39-3.7-11.2-8.69-16.97-8.95-.96-.04-2.82-.2-2.25 2.28 1.29 5.5 11.06 11.13 11.45 11.39-.77-.71-5.03-4.38-7.42-8.08-.26-.41-1.04-1.65-1.41-2.83 1.39.32 3.87 1.17 8.07 3.59.99.57 5.84 3.37 11.56 7.62 3.23 5.5 7.42 13 9.83 18.77-2.02.81-3.72 1.92-4.98 3.31-6.45-2.87-12.94-5.82-15.98-7.23-.62-.83-1.09-1.41-1.27-1.64-.82-1.03-3.46-4.38-11.92-11.19-1.28-1.03-2.15-1.7-2.73-2.12-.58-.45-.88-.65-1.04-.76-.84-1.53-4.42-8.05-8.95-12.68-2.01-2.03-3.67-3.06-4.93-3.59l17.56-28.74c.63-1.04.93-1.51 1.01-2.12.05-.42 0-.93-.2-1.75-.11-.5-.36-.93-.68-1.34-.31-.4-.71-.74-1.02-1.15l-.21-.21-.4-.21-.19-.04c-.37-.06-2.11-.34-2.46-.38h-.48c-.51.12-.93.37-1.34.69-.4.32-.76.72-1.15 1.02-.12.09-.22.2-.31.32l-23.39 38.32a62 62 0 0 0-3.47 3.04l-6.68-1.89a7.54 7.54 0 0 0-6.6 1.3c-.33.26-5.67 5.32-6.17 5.78a9.2 9.2 0 0 0-2.28 3.5c-.42 1.17-1.85 8.21-2.79 11.77-1.85 6.97 2.94 10.09 6.43 9.7.55-.05 1.02-.14 1.44-.24l-.53.87c-.57.02-6.23 1.18-7.46 6.03-.56 2.17.41 3.93.93 4.65 0 .01-.01.02-.02.02-1.91 3.24-3.09 7.41-3.28 8.09-.36 1.32-.74 2.63-.92 4v.4l.09.45c.04.11.11.3.14.37 0 .4.2.78.55.99s.78.22 1.13.02c.07 0 .29-.02.38-.05l.45-.11.36-.19c1.13-.78 2.13-1.72 3.14-2.64.26-.26 1.28-1.19 2.46-2.49 1.22 4.99 6.2 6.66 8.18 7.12a8 8 0 0 0 .31 2.8c1.08 3.9 5.12 5.82 5.27 5.88.97.36 12.9 1.72 12.9 1.72q13-.88 14.13-.96c.57-.04 8.87 1.41 17.05-1.17a18.2 18.2 0 0 0 5.32-2.72c4 3.18 7.84 6.12 11.5 8.78 2.03 5.65 5.07 10.72 7.83 14.37 9.65 12.88 21.95 14.96 24.1 15.24.11.05.22.1.32.15-.17 1.17-.25 2.38-.26 2.54-.78 10.98 1.2 39.2 1.23 39.38.14.79 1.77 5.14-.82 10.4-1.29 2.61-3.45 4.69-4.88 5.7-2.63.82-5.83 1.65-6.34 1.77-33.97 8.82-65.75 8.64-66.43 8.65 4.71.15 21.78.83 44.3-1.81 2.27-.26 15.96-1.86 27.72-4.73 1.44 7.15.06 12.2-.43 13.65-1.97 1.27-7.59 4.44-25.75 6.39-14 1.5-32 1.9-51.33 1.36-46.78-1.29-90.71-7.57-95.18-12.47-.83-4.5-.02-10.56.6-14.34 5.45 3.02 20.88 8.78 59.72 9.57 6.28.14 6.27.02 6.55.01-6.65-.38-27.92-1.59-45.87-5.84-11.92-2.82-17.99-5.96-20.22-7.85-.05-.1-.09-.19-.14-.3.02-.07-.01-.14-.09-.19a.5.5 0 0 0-.04-.11c-5.63-13.82 4.04-37.14 7.38-44.01.38-.83.32-.86.38-1.77 1.54-21.6.56-50.07-.31-67.26.01-.21.01-.42-.04-.62-.46-8.82-.87-14.52-.87-14.52-.26-1.87-.91-3.2-1.91-13.36-1.04-10.47-1.12-23.87-.73-33.55.57-14.26 1.51-22.25 1.75-24.17-.55 2.42-1.36 6.63-2.13 11.24-.82 4.94-1.43 9.08-2.07 16.13-.16 1.64-1.09 11.69-.91 20.61.32 14.85 2.12 21.55 2.42 23.59 0 0 .4 5.56.84 14.17-1.04 2.46-6.53 15.14-14.43 27.68-5.77 9.16-12.83 18.28-20.4 23.1-4.06 2.58-7.33 4.08-10.83 4.14-3.51.07-7.22-1.3-12.13-4.19-7-4.13-16.25-11.29-30.26-22.01-.19-.15-.4-.25-.63-.31 0 0-5.99-1.66-9.01-8.18-1.89-4.09-2.57-10-.2-18.45.92 1.41 1.45 2.23 1.45 2.23.01.02.04.06.06.09 5.66 7.64 13.07 6.69 19.07 3.72 5.58-2.77 9.85-7.31 9.85-7.31.02-.04.06-.07.1-.11 7.49-9.39 8.51-16.35 7.8-20.91-.77-4.85-3.51-7.26-3.7-7.42-1.72-1.56-3.5-3.16-5.25-4.79.07-.04.16-.09.25-.12 8.3-4.22 13.81 2.31 14.47 2.98 6.94 7.02 17.15 5.65 23.38 20.92 3.67 9.05 5.43 23.88 5.46 24.1-.02-2.13.15-10.39-1.33-17.42-2.3-10.89-6.3-17.15-12.38-21.44-3.96-2.78-7.02-3.8-10.05-5.92-.01-.17-.02-.34-.09-.5-.26-.79-.31-1.38-.1-1.81.34-.65 1.13-.83 1.8-.96 1.05-.22 2.02-.15 2.02-.15.73.06 1.43-.34 1.75-1.01 22.28-45.36 32.33-62.78 35.46-67.93.74-1.12 1.63-2.13 2.62-3.02l17.01-15.2c-.19 2.13-.04 4.27.57 6.35 2.97 10.06 15.3 12.66 15.7 12.73 3.54.63 5.72.47 8.77.11q-1.64-.71-3.26-1.45c-.17-.09-.2-.02-2.21-.91-4.86-2.11-8.25-2.83-11.66-5.73-1.41-1.2-6.3-5.35-3.55-15.04.26-.35.38-.77.36-1.19.82-2.43 2.1-5.17 3.98-8.29 3.19-5.22 6.13-8.21 6.37-8.74 1.04-2.22 2.3-5.48 7.23-10.73 1.69-.41 3.33-.94 4.93-1.58 1.61 4.13 2.53 9.78 2.94 12.78-.51.58-1.24 1.5-2.02 2.64-2.15 3.13-3.72 6.7-4.53 10.24-.22-2.32-.22-4.34-.15-5.67.3-6.84 1.79-11.79 2.07-12.78-1.38 2.57-3.1 6.87-3.9 10.29-1.07 4.67-1.15 7.67-1.04 10.05.56 12.33 9.02 18.12 11.35 19.59 1.72 1.09 2.35 1.44 3.16 1.19.76-.24.99-.79 2.43-2.61 5.03-6.29 17.66-20.56 35.16-30.93 3.36-2 11.91-6.14 20.63-12.73.06-.05.12-.09.17-.14.22-.09.34-.17.46-.35 7.72-6.02 13.75-14.33 6.49-17.64 1.86 1.45 3.51 3.36.47 7.26-1.34 1.72-4.33 4.27-8.28 7.13-3.59-2-9.93-6.84-12.71-21.22 11.38-3.24 29.8-6.07 34.08 2.51.78 1.56.74 3.83 3.19 7.54 3.05 4.6 6.95 6.39 6.96 6.39.02.01 5.55 2.21 11.48 6.14 17.1 11.35 15.32 21.65 13.72 26.01-7.36-3.37-14.16-5.47-18.86-6.69 2.32-.53 4.86-1.02 7.77-1.38-.1-.01-6.53-.98-14.21-.05-.06-.01-.09-.02-.09-.02-.4-.06-.78.01-1.12.19-.84.11-1.69.26-2.53.43-3.95.79-14.11 3.82-24.67 9.42-3.95 2.1-15.52 9.85-33.2 18.61-11.51 5.7-18.14 7.17-20.46 6.59.29.12 1.97.71 6.65-.12 17.66-3.16 43.59-19.11 47.47-21.24 1.64-.91 10.94-5.97 22.77-9.21 1.38-.38 2.74-.78 4.14-1.19.1.05.24.07.36.1 0 0 14.06 2.25 29.12 10.12.94.78 10.25 9.21 21.87 46.34 5.5 17.53 12.63 29.64 19.57 41.54 6.79 11.68 13.39 23.15 17.95 39.56.09.32 4 15.06 1.68 30.1zm-91.26-16.07c-1.82 1.54-4.54 2.7-5.29 2.99-5.83 2.26-11.89 3.39-20.35 2.46-1.63-.17-1.63 0-7.74.42-2.37.16-4.71.4-7.08.48-.56.02-1.13-.11-1.69-.17-8.13-.87-9.32-1.03-10.12-1.15-.47-.25-1.95-1.05-3.64-3.39-.55-.74-.89-1.4-1.12-1.96 3.73-.11 15.06-.45 15.14-.46.82-.12 10.48-1.72 13-2.2.21-.04 1.64-.31 2.49-.61 1.41-.51 2.79-1.09 4.19-1.59-1.48-.04-2.97-.17-4.45-.21-.41-.01-.83.02-1.24.06-1.05.07-4.52.58-4.9.63-8.59 1.25-8.57 1.32-9.32 1.41-.52.07-.52 0-6.56.19-7.85.24-7.93.82-10.87-.12-5.78-1.86-5.39-6.35-5.42-6.4-.04-.04-.05-.07-.09-.11 4.28.97 9.36-1.08 10.56-1.56 4.5-1.8 4.68-1.27 9.37-2.48 3.4-.89 10.32-2.73 10.41-2.75.19-.05 8.4-2.85 10.03-3.71 1.48-.77 2.92-1.61 4.38-2.38-1.63.27-3.28.47-4.9.74-1.87.32-10.06 3.08-10.31 3.14-1.54.4-14.43 3.69-19.32 5-.1.02-.09.06-1.22.48-3.96 1.49-6.41 1.53-7.75 1.35l8.59-14.1c1.34-.1 2.97-.46 4.39-1.03 3.98-1.59 6.74-4.27 8.6-6.81.05 0 .07-.01.1-.01.66-.09 4.43-.58 8.23-1.53.6-.15 4.24-1.05 7.1-2.8 1.79-1.09 2.82-2.62 6.15-3.06 1.87-.26 3.35 0 3.6.05-.4-.2-4.39-1.97-8.42-.34-1.45.6-1.34.89-4.68 1.8-4.48 1.22-7.92 2.05-10 2.52.58-1.13.97-2.06 1.18-2.61.53-.29 1.03-.61 1.5-.93.22.09.52.19.89.27 3.96.93 7.04-2.35 7.27-2.57-.05.02-2.03.96-4.08.96-.19 0-1.19 0-2.12-.27 3.66-3.45 5.16-7.68 5.26-7.93-1.51 2.15-2.79 3.65-5.25 5.5-3.8 2.85-4.89 2.38-5.56 3.08-.41.43-6.14 12.16-15.1 12.12-1.58-.88-4.23-2.59-2.49-5.29.96-1.01 4.75-5.09 8.02-13.52.82-2.11.58-2.27 2.16-3.9 8.02-8.29 12.57-10.11 14.28-10.08 1.02.12 1.64.15 3.23 1.23 1.96 1.36 4.09 3.95 4.4 4.32 3.75 4.54 6.35 9.55 6.69 9.9.26.25 6.01 4.33 11.6 9.28 6.4 5.65 10.03 8.55 12.1 11.39-.53-1.45-1.36-2.94-2.21-4.28 8.93 4.83 14.26 7.2 15.98 7.99 3.31 1.51 9.98 4.52 17.26 7.31 3.09 1.2 11.24 3.37 14.94 12.67 3.46 8.72 1.45 21.25-4.9 25.98-8.69 6.44-24.83-3.55-46.22-20.77.84-.99 1.54-2.1 2.05-3.34-.35.36-.34.37-.71.69zm-69.72-15.25c1.41-2.38 2.89-4.73 4.33-7.08l4.11-6.74c.83 1.02 2 1.96 3.6 2.78l-8.18 13.4c-1.89 2.97-4.84 5.71-5.32 6.15-.76.71-1.51 1.43-2.33 2.05.19-1.02.46-2.02.74-3.02.19-.63 1.27-4.53 3.05-7.54m-.21-4.02c.07-.4.22-.83.47-1.3.65-1.19 1.36-2.11 2.06-2.8-.84 1.38-1.69 2.73-2.53 4.11zm7.39-12.07-.82 1.34c-.16-.05-.36-.1-.62-.17 0 0-.68-.15-1.39-.4-2.73-.97-3.75-1.59-3.87-3.65-.07-1.38.14-1.35 1.86-9 .84-3.75.97-5.04 1.95-6.28.73-.92.81-.86 6.14-5.89.98-.94 2.26-1.2 3.34-1.02 2.73.48 3.52.92 5.01 1.43-1.71 1.77-2.06 2.48-2.49 3.65-3.62 10.16-7.77 13.79-8.14 14.29-1.14 1.53-1.64 3.62-.97 5.7m22.67-32.8 20.62-33.79c.24-.2.47-.41.71-.63.2-.19.38-.38.63-.5.43.07 1.33.21 1.86.3.15.17.31.35.47.52.24.24.48.47.56.79.1.45.17.71.14.94-.01.14-.1.25-.2.42-.12.21-.29.46-.5.79l-17.92 29.37s-.04-.01-.05-.01c-.68-.11-2.64-.31-6.33 1.79z"></path>
      <path fill="#000" d="M329.571 125.19c-.41-9.76-7.68-11.18-8.14-11.27.47.2.48.2.94.46 1.86 1.12 3.04 2.62 3.81 4.16-.26-.25-.56-.48-.87-.72-3.77-2.82-9.19-1.69-12.43-.32-2.23.94-5.26 3.4-7.08 6.56-.04-1.27.02-2.63.22-4.06-.92 2.38-1.35 4.73-1.43 6.86-.46 1.69-.88 3.67.93 6.13 1.75 4.43 5.79 6.6 5.83 6.63-.37-.47-2.56-2.72-4.26-8.16.37-.65.72-1.22.98-1.97.02-.04.04-.07.05-.1-.32 1.43-.31 3 .14 4.55 1.33 4.64 5.84 7.37 10.04 6.18.94-.27 1.8-.72 2.54-1.3 1.36-.63 2.84-1.53 4.14-2.73-.11.56-.19 1.13-.19 1.7 1.12-2.11 3.47-4.08 5.15-5.62 2.68-2.49 3.61-3.85 9.03-7.64-.45.11-6.17 1.76-9.85 4.81.61-2.25.45-3.91.43-4.14zm-11.89 12.76c-3.05.87-6.27-1.24-7.23-4.63-.97-3.39.66-6.87 3.72-7.74 3.05-.87 6.27 1.24 7.23 4.63.97 3.39-.66 6.87-3.72 7.74m9.79-12.66c.07 5.12-2.1 8.64-4.53 10.98 1.01-1.92 1.32-4.32.63-6.69-1.33-4.64-5.84-7.37-10.03-6.18-.17.05-.35.1-.51.16.62-.41 1.13-.68 1.4-.83 1.49-.52 3.39-1.29 8.3-1.13 1.96.07 3.55.62 4.63 1.13.17 1.35.1 2.35.1 2.56zM296.97 133.73c-.78-1.92-2.44-7.17-2.17-13.43-1.49 5.39-.58 9.73-.19 11.03 2.06 6.72 6.58 9 9.08 10-.88-.52-4.63-2.51-6.72-7.61zM143.87 278.99c-.77 1.65-3.86 8.34-5.12 14.68 1.72-4.16 4.47-8.54 6.41-11.7 4.78-7.73 5.1-7.59 8.39-16.07-3.26 3.04-6.25 5.73-9.68 13.09M298.281 110.27c.83-.53 2.74-1.45 4.11-2.3.63-.4 7.95-6.06 23.9-5.51-7.46-3.34-14.27-4.13-18.31-3.92-9.95.53-12.58 5.42-12.97 5.96-.16.24-.99 1.45-1.44 3.19-.76 2.94-.19 5.01.02 5.91 2.13-1.76 2.16-1.72 3.1-2.33.78-.51.79-.5 1.59-.99z"></path>
      <path fill="#000" d="M313.88 128.53c-1.99.78-2.81 3.41-1.84 5.88s3.36 3.83 5.35 3.05 2.81-3.41 1.84-5.88c-.97-2.46-3.36-3.83-5.35-3.05M278.28 148.95c1.77-.79 2.48-3.36 1.57-5.76-.9-2.39-3.07-3.69-4.85-2.9-1.77.79-2.48 3.36-1.57 5.76.9 2.39 3.07 3.69 4.85 2.9M369.839 75.95c-2.38.28-4.37 1-6.61 2.01l-7.9 4.31c-1.42 1.15-2.98 2.72-4.28 4.83-6.31 4.1-9.07 12.07-6.18 19.45.28.74 7.29 16.05 7.78 17.12 4.11 8.84 13.67 12.27 21.59 10.09 1.54-.43 8.15-2.99 8.82-3.28 5.46-2.45 6.62-5.52 6.85-7.11 2.64-2.01 4.75-4.78 5.99-7.94l1.09-3.96c.49-3.08.2-6.35-1.07-9.57-.32-.82-6.39-14.11-6.94-15.34-2.23-4.87-7.07-9.07-13.12-10.35l-2.71-.36a19.4 19.4 0 0 0-3.31.09zm15.73 11.15c.42.73 6.68 13.93 7.37 15.37 3.04 6.37 1.31 14.97-5.42 19.59-1.76 1.21-1.85 1.06-8.81 4.48-.74.36-5.09 2.49-10.36 1.01-6.45-1.82-8.91-6.83-9.22-7.37 3.44 8.22 11.76 10.97 18.75 8.92 1.11-.33 5.38-2.25 7.57-3.24-.54.46-1.45 1.12-2.82 1.76-.61.29-1.25.58-7.86 2.91a15.68 15.68 0 0 1-18.66-6.81c-.54-.9-.49-.93-8.41-17.59-2.03-4.25-1.46-8.62-.04-11.59.35-.76.75-1.43 1.18-2.04-.77 3.22-.27 5.31-.27 5.36.15.99.8 3.01 1.4 4.11.86 1.55 2.1 3 2.12 3.04q-.18-.85-.18-.93c-.77-3.9-.1-7.72.19-9.5.71-4.41 3.18-7.67 5.55-9.53 1.9-1.5 3.79-2.24 8.23-4.33 6.26-2.93 15.27-1.31 19.73 6.37z"></path>
      <path fill="#fff" fill-rule="evenodd" d="M273.08 140.23c1.17-.52 2.51.11 3 1.39.49 1.29-.07 2.75-1.23 3.27s-2.51-.11-3-1.39.07-2.75 1.23-3.27M311.919 128.36c1.17-.52 2.51.11 3 1.39s-.07 2.75-1.23 3.27-2.51-.11-3-1.39c-.49-1.29.07-2.75 1.23-3.27" clip-rule="evenodd"></path>
      <path fill="#fff" d="M285.43 148.29c-7.07 16.65-12.55 34.68-17.17 52.19 1.3-18.37 6.94-36.81 17.17-52.19M361.279 84.31c-5.76 4.59-7.1 12.49-3.39 18.6l1.4 2.78c1.81 3.73 3.6 7.48 5.25 11.29 1.58 3.11 2.07 7.26 5.76 8.29.47.14 1 .2 1.48-.03-.88.68-2.15.39-3.13.05-2.13-.71-3.36-2.92-4.33-4.73-3.29-5.84-6.42-11.92-9.27-17.99-3.17-6.49-.42-15.26 6.24-18.26zM276.18 79.64c2.09-6.45 9.07-10.08 15.35-11.34-.72.41-1.47.75-2.19 1.12-4.93 2.58-10.05 5.45-13.16 10.22M328.811 61.62c10.27-.46 21.03 4.34 26.79 12.98-7.06-7.4-16.72-11.67-26.79-12.98" style="mix-blend-mode:overlay"></path>
      <path fill="#000" fill-rule="evenodd" d="m313.22 208.75-1.06 1.78c.33-.72.69-1.31 1.06-1.78m0 0 4.67-7.79 7.13-3.21s12.27-4 28.79-21.95c0 0-4.93 32.37-24.02 39.06l-1.31 16.43s-9.11 2.51.74 14.17c0 0-18.04-10.54-7.89-36.23 0 0-4.72-4.8-8.11-.49zM274.18 87.51c11.59-21.52 42.8-16.72 42.8-16.72 4.49-.06 10.94-5.94 10.94-5.94l4.82 1.9c-4.03 7.65-12.4 7.96-12.4 7.96-38.18-.91-45.82 12.19-46.16 12.8m0 0s0 .01-.01.02c0 0 .01 0 .01-.02m122.33 293.02-2.22.42-16.29.76s-14.4 2.82-17.17-9.48c0 0-7.48-1.53-8.27-8.19l-7.43 5.63s9.32-13.06 13.85-21.95c0 0-2.55.84-3.08-2.68 0 0-7.65-1.15-7.47-5.83 0 0 5.26 1.76 8.49-6.53 0 0 4.33-9.81 9.48-9.92 0 0-5.08 13.87-7.19 15.09 0 0 3.52 10.1 11.2.25l6.15-7.53s9.24-4.44 11.38-8.69c0 0 6.14 5.45 3.79 11.32l-12.05 4.89s-6.06 13.77-14.67 13.72c0 0-4.31 5.71-2.73 9.3l5.29-1.7 25.47-7.03-21.46 11.19s-2.63 6.09 3.33 6.99l10.6.37s-7.48 1.61-5.41 5.79c0 0 1.04 1.06 8.78 0 0 0 6.81.59 12.8 1.12 4.78-1.61 10.86-4.05 17-7.56 0 0 41.03 23.9 52.3 18.83 0 0 3.73-1 5.38 8.1s34.64 8.64 37.27-16.12c0 0 .24 33.67-33.75 40.41l-18.95-5.41s-1.02 37.03 1.57 46.17c0 0-1.44 8.72-7.58 13.69 0 0 2.28 13.91-.75 18.28 0 0-28.5 10.48-52.3 7.93 0 0 10.83-8.25 11.19-17.52 0 0-41.22 2.8-56.79-1.8 0 0 78 2.46 79.61-35.98 1.59-38.44-4.09-38-2.95-49.6l-3.95-9.57-12.52-10.05s-11.32 2.54-19.96 2.88zM107.43 275.25s8.54 12.32 14.18 14.91c0 0 6.74 4.35 12.99 8 6.24 3.65 19.83 19.53 36.62 6.91 0 0 12.62-3.8 16.18-14.84 0 0-1.04 25.45-14.43 27.81 0 0 25.99 42.87 32.45 43.7 0 0-4 10.86 3.78 14.79 7.77 3.94 26.2 34.74 42.56 19.2 0 0 10.57-12.24 6.73-37.46 0 0 3.41 6.55 4.02 13.48 0 0 3.95-9.68 3.12-18.58-.81-8.9 14.68-18.29 17.87-24.91l5.2 29.5s-18 38.37-42.41 51.83c0 0-10.88 11.22-37.62-14.78 0 0-9.03-7.35-16.98-11.61 0 0-12.69-1.56-5.33-30.03l-24.38-36.62s-14.47 2.39-29.3-13.15c0 0-24.61-12.74-25.27-28.14zm30.68 18.78c2.84-13.17 15.09-26.88 15.09-26.88 1.43 20.34-15.09 26.88-15.09 26.88m168.33 130.11s29.38 10.66 62.18-1.04c0 0-43.87 32.06-62.18 1.04m134.06-72.98s17.54-6.52 27.81 14.38c0 0-8.01-5.78-13.69-8.86 0 0-12.38-1.72-14.12-5.52m-4.11-4.9s-3.02-10.95-13.41-19.37c0 0-14.95 2.04-20.56-20.29 0 0 10.56-2.13 21.17 8.6 0 0-7.41-19.57-1.67-37.79 0 0 6.05 35.42 21.47 50.63 0 0 7.9 11.43 10.53 16.59 0 0-10.61-3.87-17.53 1.63m-12.01-153.11c31.45 18.12 22.69 34.31 22.69 34.31l5.45 5.78c-31.85-10.68-61.81 5.72-61.81 5.72-32.84 18.08-52.9 13.93-52.9 13.93 19.9-6.24 40.83-20.8 40.83-20.8 27.14-27.28 50.81-11.94 56.12-19.64 5.32-7.7-10.38-19.29-10.38-19.29zM320.75 253.7s-32.31 4.49-29.85-14.65l6.18-6.73s-1.47 20.86 23.67 21.38m56.64-65.86s9.93-5.98 19.89-3.41c0 0 8.37 4.26-7.37 15.36l-6.76 5.24s-18.79-15.55-13.24-44.71l-7.78 9.6s10.66-16.12 14.01-34.02c0 0-9.63 6.98-17.51-6.57 0 0 6.26.6 6.73-2.84 0 0 8.99 2.39 12.56-7.21s-1.53-34.21-8.57-37.54l-3.66-.85-1.79-4.08s9.38-11.69 16.15-23.06l-3.2 12.75s14.41-21.9 13.38-33.72c0 0-6.84 9.19-10.24 13.69 0 0 17.02-41.22 10.46-42.15 0 0 20.06-14.09 3.37 23.78 0 0 11.48-3.21 4.08 20.72l-20.67 31.63s6.7-.26 16.32 17.38l2.46 13.73-6.3 9.47s.87 7.87.92 14.11l-5.42-3.56s-3.31 10.9-11.48 23.92c0 0-2.21 22.91 3.67 32.32zm-51.32-22.92s-24.23 30.13-24.74 34.65l-5.6-2.45s5.96-11.9 30.34-32.21zm-44.08 27.38c.86-18 38.1-37.65 38.1-37.65l-22.61 31.95c-5.55-1.45-12.25 5.17-12.25 5.17-2.3-3.03-3.24.53-3.24.53m12.72-71.85s3.61 18.71 10.22 21.31c0 0-12.65-2.51-10.22-21.31m-15.81 8.9c-11.45-10.41-17.65.22-17.65.22l-1.83-7.63c-.03-4.86 5.81-3.65 5.81-3.65 10.41 2.24 13.67 11.07 13.67 11.07zm57.58-71.93c26.17 5.75 25.63 18.22 25.63 18.22l2.83 4.81-5.26 1.72-3.19-4.91c-.29-3.26 2.84-3.35 2.84-3.35-4.44-9.87-22.85-16.49-22.85-16.49m-19.36 55.47c10.87 1.04 9.96 8.74 9.96 8.74l-3.53-1.97c-1.7-4.75-6.43-6.77-6.43-6.77" clip-rule="evenodd" opacity="0.25"></path>
      <g filter="url(#remote-worker_svg__l)" opacity="0.92">
         <path fill="#93DBB9" fill-rule="evenodd" d="M110.73 170.16c-1.86-1.33-3.95-2.07-5.83-2.07H25.89c-1.88 0-3.38.75-4.18 2.07s-.83 3.13-.08 5L62.42 277.5c.75 1.88 2.21 3.67 4.07 5s3.95 2.07 5.83 2.07h79c1.88 0 3.38-.75 4.18-2.07s.83-3.12.08-5l-40.79-102.34c-.75-1.87-2.21-3.67-4.07-5z" clip-rule="evenodd"></path>
      </g>
      <path fill="#5FA07F" fill-rule="evenodd" d="M41.42 171.61c-1.32 0-1.97 1.09-1.45 2.4s2.04 2.4 3.36 2.4 1.98-1.08 1.45-2.4-2.03-2.4-3.36-2.4m1.49 3.75c-.74 0-1.59-.6-1.88-1.35s.08-1.34.81-1.34 1.59.6 1.88 1.34-.06 1.35-.81 1.35m-14.77-3.75c-1.33 0-1.97 1.09-1.45 2.4s2.03 2.4 3.36 2.4 1.97-1.08 1.44-2.4-2.03-2.4-3.35-2.4m1.5 3.75c-.75 0-1.59-.6-1.88-1.35s.07-1.34.81-1.34 1.58.6 1.87 1.34-.06 1.35-.8 1.35m5.13-3.75c-1.32 0-1.96 1.09-1.44 2.4s2.03 2.4 3.35 2.4 1.98-1.08 1.45-2.4-2.03-2.4-3.36-2.4m1.5 3.75c-.74 0-1.58-.6-1.88-1.35s.07-1.34.8-1.34 1.59.6 1.88 1.34-.06 1.35-.81 1.35zm78.34 60.92c-1 .16-1.89.05-2.45-.06-.76-1.65-1.67-3.14-2.67-4.46.04-.03.08-.05.12-.08 0 0-.36-1.36.48-2.7.4-.64 1.2-1.1 1.33-1.16-.48.06-1.39.14-2.37.91-.48.38-.8.87-1.02 1.29-.03-.04-.07-.09-.12-.14.18-.14.34-.3.47-.48.55-.5 1.11-1.45.75-3.2-.05-.25-.07-.25-.13-.5-.89-4.05-4.38-6.77-6.91-7.76.73.44 1.36.91 1.91 1.4-3.22-1.75-6.23-1.08-6.24 1.61-1.76-2.93-2.41-5.06-2.54-5.52.06.52.29 2.31 1.39 5.01.72 1.75 1.55 3.3 2.16 4.33-2.97-.27-5.4 1.1-6.16 4.49-3.06-6.62-6.91-11.34-10.27-13.83 2.12 1.97 4.07 4.81 5.2 6.55 3.13 4.79 4.66 8.92 4.71 8.97.03.04.08.08.12.12 0 .15-.01.29-.01.44 0 0-.04 2.37-1.21 4.41-.55.98-1.35 1.88-2.56 2.4.17-.43.3-.93.33-1.52-.54.61-1.34 1.33-3.26 1.89-1.98.59-1.86.8-4.05 1.05.43.2 3.06 1.47 5 .7.13-.05.31-.14.53-.29.13.11.27.19.42.25 0 0 .23.09.62.2.03.11.08.21.14.31 2.68 4.21 6.56 7.93 10.35 10.42 6.08 4.01 11.82 4.79 12.66.11.03-.1.02-.19 0-.3 0 0-.3-1.3-.73-2.94.18.16.38.33.57.49.26.23.57.37.85.37s.5-.14.57-.36c0 0 1.94-5.89.53-10.05-.1-.3-.21-.6-.33-.89.32-.04.7-.12 1.1-.23 2.04-.61 2.47-1.87 2.58-2.1-.13.1-.85.69-1.87.84zm-7.6-7.28c-.09-.09-.19-.17-.28-.25.33-.48.33-1.32-.09-2.26-.62-1.44-1.95-2.57-2.96-2.54-.85.04-1.21.9-.9 2.05-.29-.14-.57-.26-.84-.38-.64-1.75-.17-3.18 1.21-3.24 1.47-.05 3.27 1.47 4.09 3.35.64 1.44.51 2.72-.24 3.27zm-7.03-7.54c.83-.81 2.68-.69 2.82-.67 1.55.16 2.83.95 3.79 1.79.23.44.43.86.59 1.26-1.26-1.55-3.02-2.58-4.47-2.53-1.75.07-2.57 1.72-1.95 3.86h-.02c-.35-.41-.9-1.11-1.61-2.12l-.02-.02c.09-.4.31-1.01.88-1.56zm9.46 29.24c-.48 2.24-2.59 2.62-5.26 1.76-4.41-1.41-10.24-5.91-13.92-11.37.76.13 1.64.22 2.62.25.91.84 3.35 2.98 6.61 5.05.64.41 4.4 2.8 8.26 4.07.36.13.53-.05.57-.17.09-.22 0-.25-.53-2.49-.25-1-.42-1.73-.54-2.26.35.25.7.51 1.06.8.53 1.93.98 3.8 1.12 4.36zm-2.05-1.36c-.6-.19-2.22-.76-4.34-1.89-3.35-1.8-6.42-4.22-8.5-6.14.74-.06 1.52-.16 2.32-.33.28-.02 3.31-.13 8.76 3.43.03.07.04.13.05.18.24.81.4 1.62.7 2.43.28.78.68 1.54 1.01 2.31zm3.92-10.79c.95 2.8.19 6.43-.26 8.14-9.76-8.27-15.12-7.47-15.12-7.47h-.06c-1.9.43-3.66.41-5.07.25.93-.62 1.62-1.44 2.11-2.33 1.31-2.31 1.35-4.96 1.35-4.96.05-4.95 3.16-6.53 6.89-5.26 3.84 1.31 8.1 5.49 10.16 11.61zM84.2 226.77c-1.2 0-1.68 1.22-1.09 2.71s2.06 2.72 3.26 2.72 1.68-1.22 1.09-2.72-2.05-2.71-3.25-2.71zm0 0c-1.2 0-1.68 1.22-1.09 2.71s2.06 2.72 3.26 2.72 1.68-1.22 1.09-2.72-2.05-2.71-3.25-2.71zm-4.88-7.31c1.08.36 2.24 1.21 3.34 2.31-3.2-1.07-6.29.89-6.2 4.03a37 37 0 0 1-1.32-3.16c.22 3.87 2.55 7.25 4.55 9.1.4.37.81.7 1.17.96-.41.24-.8.57-1.16 1 1.81-.21 3.12.03 4.35.09 1.47.07 2.26.09 4.13.92-.32-.32-.65-.61-1-.88 1.13-.34 1.78-1.34 1.8-2.68.06-.31.08-.71 0-1.14-.86-4.39-5.92-10.03-9.66-10.55m2.46 12.84c-.76-.46-2.27-1.52-3.72-3.64-.15-.22-.28-.45-.43-.69-.2-2.04 1.08-3.48 3.37-3.66-1.38.69-1.86 2.5-.99 4.68.48 1.21 1.32 2.33 2.28 3.18q-.255.045-.51.12zm5.66-3.2c.18.51.31.94.41 1.31.12 1.45-.62 2.49-2 2.49h-.11c-.66-.35-1.33-.59-2.01-.7a6.97 6.97 0 0 1-2.65-3.2c-.85-2.13-.14-3.91 1.66-3.91 1.52 0 3.27 1.27 4.29 2.96q.24.54.42 1.05zm-4.33.38c.6 1.5 2.06 2.72 3.26 2.72s1.68-1.22 1.09-2.72-2.05-2.71-3.25-2.71-1.68 1.22-1.09 2.71zm-4.48-16.22c-2.84-1.52-4.6-1.54-5.52-1.45-3.12.32-4.41 3.76-1.9 8.9 0-.1-.19-2.97 1.36-4.8.79-.91 2.63-1.77 3.05-1.93 1.99-.72 3.3-.56 3.01-.72m22.42-3.72c-4.32-3.13-8.25-1.63-6.38 3.19 1.2-1.51 2.74-2.59 3.21-2.75 1.69-.62 4.83 1.18 5.39 1.47-.08-.08-1.01-1.04-2.22-1.91m13.56 26.74c-1 .16-1.89.05-2.45-.06-.76-1.65-1.67-3.14-2.67-4.46.04-.03.08-.05.12-.08 0 0-.36-1.36.48-2.7.4-.64 1.2-1.1 1.33-1.16-.48.06-1.39.14-2.37.91-.48.38-.8.87-1.02 1.29-.03-.04-.07-.09-.12-.14.18-.14.34-.3.47-.48.55-.5 1.11-1.45.75-3.2-.05-.25-.07-.25-.13-.5-.89-4.05-4.38-6.77-6.91-7.76.73.44 1.36.91 1.91 1.4-3.22-1.75-6.23-1.08-6.24 1.61-1.76-2.93-2.41-5.06-2.54-5.52.06.52.29 2.31 1.39 5.01.72 1.75 1.55 3.3 2.16 4.33-2.97-.27-5.4 1.1-6.16 4.49-3.06-6.62-6.91-11.34-10.27-13.83 2.12 1.97 4.07 4.81 5.2 6.55 3.13 4.79 4.66 8.92 4.71 8.97.03.04.08.08.12.12 0 .15-.01.29-.01.44 0 0-.04 2.37-1.21 4.41-.55.98-1.35 1.88-2.56 2.4.17-.43.3-.93.33-1.52-.54.61-1.34 1.33-3.26 1.89-1.98.59-1.86.8-4.05 1.05.43.2 3.06 1.47 5 .7.13-.05.31-.14.53-.29.13.11.27.19.42.25 0 0 .23.09.62.2.03.11.08.21.14.31 2.68 4.21 6.56 7.93 10.35 10.42 6.08 4.01 11.82 4.79 12.66.11.03-.1.02-.19 0-.3 0 0-.3-1.3-.73-2.94.18.16.38.33.57.49.26.23.57.37.85.37s.5-.14.57-.36c0 0 1.94-5.89.53-10.05-.1-.3-.21-.6-.33-.89.32-.04.7-.12 1.1-.23 2.04-.61 2.47-1.87 2.58-2.1-.13.1-.85.69-1.87.84zm-7.6-7.28c-.09-.09-.19-.17-.28-.25.33-.48.33-1.32-.09-2.26-.62-1.44-1.95-2.57-2.96-2.54-.85.04-1.21.9-.9 2.05-.29-.14-.57-.26-.84-.38-.64-1.75-.17-3.18 1.21-3.24 1.47-.05 3.27 1.47 4.09 3.35.64 1.44.51 2.72-.24 3.27zm-7.03-7.54c.83-.81 2.68-.69 2.82-.67 1.55.16 2.83.95 3.79 1.79.23.44.43.86.59 1.26-1.26-1.55-3.02-2.58-4.47-2.53-1.75.07-2.57 1.72-1.95 3.86h-.02c-.35-.41-.9-1.11-1.61-2.12l-.02-.02c.09-.4.31-1.01.88-1.56zm9.46 29.24c-.48 2.24-2.59 2.62-5.26 1.76-4.41-1.41-10.24-5.91-13.92-11.37.76.13 1.64.22 2.62.25.91.84 3.35 2.98 6.61 5.05.64.41 4.4 2.8 8.26 4.07.36.13.53-.05.57-.17.09-.22 0-.25-.53-2.49-.25-1-.42-1.73-.54-2.26.35.25.7.51 1.06.8.53 1.93.98 3.8 1.12 4.36zm-2.05-1.36c-.6-.19-2.22-.76-4.34-1.89-3.35-1.8-6.42-4.22-8.5-6.14.74-.06 1.52-.16 2.32-.33.28-.02 3.31-.13 8.76 3.43.03.07.04.13.05.18.24.81.4 1.62.7 2.43.28.78.68 1.54 1.01 2.31zm3.92-10.79c.95 2.8.19 6.43-.26 8.14-9.76-8.27-15.12-7.47-15.12-7.47h-.06c-1.9.43-3.66.41-5.07.25.93-.62 1.62-1.44 2.11-2.33 1.31-2.31 1.35-4.96 1.35-4.96.05-4.95 3.16-6.53 6.89-5.26 3.84 1.31 8.1 5.49 10.16 11.61zm-8.05-27.1c-.08-.08-1.01-1.04-2.22-1.91-4.32-3.13-8.25-1.63-6.38 3.19 1.2-1.51 2.74-2.59 3.21-2.75 1.69-.62 4.83 1.18 5.39 1.47m-22.39 21.26c-.41.24-.8.57-1.16 1 1.81-.21 3.12.03 4.35.09 1.47.07 2.26.09 4.13.92-.32-.32-.65-.61-1-.88 1.13-.34 1.78-1.34 1.8-2.68.06-.31.08-.71 0-1.14-.86-4.39-5.92-10.03-9.66-10.55 1.08.36 2.24 1.21 3.34 2.31-3.2-1.07-6.29.89-6.2 4.03a37 37 0 0 1-1.32-3.16c.22 3.87 2.55 7.25 4.55 9.1.4.37.81.7 1.17.96m1.86-7.61c1.52 0 3.27 1.27 4.29 2.96q.24.54.42 1.05c.18.51.31.94.41 1.31.12 1.45-.62 2.49-2 2.49h-.11c-.66-.35-1.33-.59-2.01-.7a6.97 6.97 0 0 1-2.65-3.2c-.85-2.13-.14-3.91 1.66-3.91zm-5.1 2.88c-.2-2.04 1.08-3.48 3.37-3.66-1.38.69-1.86 2.5-.99 4.68.48 1.21 1.32 2.33 2.28 3.18q-.255.045-.51.12c-.76-.46-2.27-1.52-3.72-3.64-.15-.22-.28-.45-.43-.69zm8.74 4.22c1.2 0 1.68-1.22 1.09-2.72s-2.05-2.71-3.25-2.71-1.68 1.22-1.09 2.71 2.06 2.72 3.26 2.72zm-10.75-18.22c1.99-.72 3.3-.56 3.01-.72-2.84-1.52-4.6-1.54-5.52-1.45-3.12.32-4.41 3.76-1.9 8.9 0-.1-.19-2.97 1.36-4.8.79-.91 2.63-1.77 3.05-1.93m-34.2-42.37c-1.32 0-1.97 1.09-1.45 2.4s2.04 2.4 3.36 2.4 1.98-1.08 1.45-2.4-2.03-2.4-3.36-2.4m1.49 3.75c-.74 0-1.59-.6-1.88-1.35s.08-1.34.81-1.34 1.59.6 1.88 1.34-.06 1.35-.81 1.35m-8.14-3.75c-1.32 0-1.96 1.09-1.44 2.4s2.03 2.4 3.35 2.4 1.98-1.08 1.45-2.4-2.03-2.4-3.36-2.4m1.5 3.75c-.74 0-1.58-.6-1.88-1.35s.07-1.34.8-1.34 1.59.6 1.88 1.34-.06 1.35-.81 1.35zm-8.13-3.75c-1.33 0-1.97 1.09-1.45 2.4s2.03 2.4 3.36 2.4 1.97-1.08 1.44-2.4-2.03-2.4-3.35-2.4m1.5 3.75c-.75 0-1.59-.6-1.88-1.35s.07-1.34.81-1.34 1.58.6 1.87 1.34-.06 1.35-.8 1.35m81.09-5.2c-1.86-1.33-3.95-2.07-5.83-2.07H25.89c-1.88 0-3.38.75-4.18 2.07s-.83 3.13-.08 5L62.42 277.5c.75 1.88 2.21 3.67 4.07 5s3.95 2.07 5.83 2.07h79c1.88 0 3.38-.75 4.18-2.07s.83-3.12.08-5l-40.79-102.34c-.75-1.87-2.21-3.67-4.07-5zm-37.1 111.6h-2.42c-1.13 0-2.39-.45-3.5-1.25-1.12-.8-2-1.88-2.45-3.01l-7.71-19.35c.37-.4.94-.73 1.52-1.03 1.53-.78 3.32-1.19 3.32-1.19.09-.02.18-.06.23-.12l9.1-7.42c.69 2.9 1.83 6.38 5.14 10.94.17.22.4.42.65.51.26.11.51.13.7.05l4.73-1.92 1.1 5.86c-.31.73-.57 1.35-.72 1.72-.68-.03-1.95-.03-3.1.32-1.68.51-3.12 1.72-2.52 4.41-.63.16-1.53.53-2.11 1.45-.58.88-.86 2.3-.21 4.57-1 .57-3.18 2.25-1.74 5.46zm10.27-25.79c-.33-.21-.69-.28-.94-.17l-5.26 2.13c-3.36-4.94-3.98-8.47-4.64-11.43 0 0 .3-.77.54-1.44 1.09 1.03 2.27 2.07 3.58 3.14 5.84 4.75 9.51 7.13 13.89 9.12-.41.04-.81.08-1.19.14-1.58.22-2.79.66-3.42 1.59-.36.54-.75 1.26-1.13 2.04l-.81-4.27c-.06-.32-.3-.64-.62-.84zm17.77 25.79c.05-.29.05-.61.02-.95 1.13-.11 2.23 0 2.68.04.58.35 1.11.65 1.62.91zm12.16-.94s-.75.97-2.74.9c-1.45-.04-3.53-.64-6.39-2.39-.16-.1-.34-.16-.49-.18 0 0-1.34-.2-2.86-.13-.29-.93-.71-1.96-1.28-3.06-.84-1.62-.96-1.59-1.32-1.85a30.4 30.4 0 0 0-11.77-5.35c.54.24 2.57 1.14 5.55 2.87 3.76 2.19 5.44 3.6 5.45 3.6 2.31 4.3 2.04 5.92 1.47 6.54h-4.61c-.26-.69-.65-1.75-2.05-2.76-3.98-2.87-8.33-4.08-8.57-4.16 6.32 3.98 7.13 4.62 7.72 5.09.92.73 1.02 1.21 1.2 1.83h-8.23l-3.91-1.6 2.04 1.6h-7.61c-1.37-2.92 1.65-4.01 1.65-4.01.29-.12.41-.43.29-.79-.67-2-.52-3.22-.05-3.96.66-1.02 1.86-1.07 1.86-1.07.45 0 .68-.36.54-.81-.72-2.23.38-3.16 1.65-3.55 1.39-.42 2.95-.23 2.95-.23.33.04.58-.09.67-.33 0 0 .33-.82.82-1.94.12-.1.18-.24.18-.44.65-1.45 1.5-3.24 2.2-4.3.6-.91 2.02-1.1 3.68-1.26 1.91-.18 4.15-.28 6.18-.94.08-.02.63-.14 1.35-.08.45.05.95.16 1.44.47.51.34.93.9 1.24 1.77.04.15 1.03 4.08-6.45 4.3-.08 0-.17.02-.24.05 0 0-2.8 1.17-1.59 4.37.02.07.38 1.06 1.62 2.05 1.04.83 2.84 1.75 5.84 1.77h.1s3.77-.43 7.36 2.91c.15.15.33.25.53.32 0 0 1.83.63 3.36 1.65.72.48 1.4 1.04 1.6 1.7.14.45.02.9-.34 1.41zm-14.6-14.77 3.86 5.23c-1.38-.27-2.36-.22-2.59-.2-4.08-.04-4.94-2-4.94-2-.67-1.76.59-2.54.95-2.72 1.04-.04 1.94-.14 2.72-.3zm16.54 15.71c.43-.76.43-1.49.24-2.16-.36-1.2-1.46-2.31-2.77-3.18-1.43-.96-3.07-1.63-3.74-1.88-1.37-1.22-2.77-2.03-4.03-2.54l-4.7-6.37c1.55-.57 2.36-1.41 2.79-2.2.81-1.51.3-3.01.3-3.01v-.02c-.56-1.6-1.46-2.58-2.4-3.2a5.8 5.8 0 0 0-2.61-.9c-1.11-.1-1.94.13-1.94.13h-.03c-.94.3-1.93.48-2.91.6-.05-.06-.11-.14-.19-.21-.08-.09-.23-.09-.34-.14-6.84-2.73-11.08-6.22-14.67-9.07-14.13-11.2-13.71-20.01-13.66-20.73.03-.48-.06-.51-.37-1.04-7-12.28-6.21-19.63-4.11-22.71.34-.51-.17-1.1-.45-1.3-.94-.69-1.22.39-4.76-.58.41-.77 1.22-1.9 2.73-2.84.92-.58-.17-1.45-.26-1.51-.85-.59-4.77-3.09-7.59-7.11 3.41-.69 13.24 3.56 13.41 3.64.7.28 1.13-.11 1.03-.62-.15-.73-1.14-1.11-1.15-1.11-6.88-3.65-9.13-8.51-8.8-9.83 6.58-1.88 23.57 10.16 24.76 10.99.53.36 1.68.4 5.31 1.81 12.38 4.86 20.68 14.9 25.34 24.02 2.42 4.74 2.9 6.99 3.15 7.37.28.42 2.34 2.04 4.91 5.26 10.92 13.66.68 22.91-.61 24.06-3.22 2.89-6.03 3.96-10.32 4.37 2.49-.02 5.39-.37 8.12-1.67 3.28 5.66 5.31 16.34 5.19 23.69h-4.87zm6.78 0c-.02-7.81-2.27-18.78-5.74-24.42.17-.11.34-.21.51-.33.64-.43 4.42-2.99 6.35-7.07.09-.17.17-.36.25-.54 1.18 1.36 2.45 2.81 3.78 4.36l-5.1 1.8c-.26.09-.38.31-.34.6.02.28.22.59.5.81l8.54 6.77c-.04 2.3-.28 12.03-1.98 18.01h-6.76zm30.21-4.26c.45 1.12.44 2.21-.04 3.01-.47.8-1.38 1.25-2.51 1.25h-18.79c1.7-7.04 1.78-17.85 1.78-17.85 0-.3-.19-.65-.51-.9l-7.77-6.16 4.81-1.71c.21-.08.35-.25.36-.48 0-.23-.1-.5-.3-.73-1.92-2.23-3.67-4.26-5.31-6.12.03-.08.04-.16.07-.24 4.12 1.26 13.12 3.91 18.13 4.62l10.09 25.32zm-10.8-27.1c-4.74-.7-12.95-3.11-17.08-4.37 1.53-9.52-7.22-17.85-9.95-20.44-2.91-8.59-12.43-27.01-32.91-33.57-1.78-.57-1.89-.52-1.94-.53v-.05c-.94-.65-19.52-13.84-26.62-11.21-.78.28-.9 1.91.32 4.26 1.05 2.04 2.63 3.75 4.2 5.12-3.1-1.04-6.66-1.95-8.67-1.56-1.95.38-1.17 1.31-.57 2.16 2.36 3.4 5.65 6 7.25 7.16-.88.69-2.19 1.94-2.76 3.67-.22.68.22 1.23 1.02 1.51 1.57.55 2.85.79 3.83.86-1.06 2.75-2.1 9.25 3.95 20.75.55 1.05 1.1 2 1.1 2 .02 0 .06.03.08.04-.14 3.37 1.52 9.74 8.76 17.25l-.8 2.15c-.05.12-.05.25-.02.39.01.03.01.06.03.09l-10 8.16c-.55.15-2.74.75-4.26 1.73-.07.04-.13.09-.2.13l-31.07-77.95h87.51l28.81 72.26zm-29.23-73.32H25.22l-.77-1.92c-.45-1.12-.44-2.21.05-3.01.48-.8 1.37-1.25 2.51-1.25h79c1.12 0 2.39.46 3.5 1.25s1.99 1.88 2.44 3.01l.77 1.92zm-1.39 74.37c.03-.1.02-.19 0-.3 0 0-.3-1.3-.73-2.94.18.16.38.33.57.49.26.23.57.37.85.37s.5-.14.57-.36c0 0 1.94-5.89.53-10.05-.1-.3-.21-.6-.33-.89.32-.04.7-.12 1.1-.23 2.04-.61 2.47-1.87 2.58-2.1-.13.1-.85.69-1.87.84-1 .16-1.89.05-2.45-.06-.76-1.65-1.67-3.14-2.67-4.46.04-.03.08-.05.12-.08 0 0-.36-1.36.48-2.7.4-.64 1.2-1.1 1.33-1.16-.48.06-1.39.14-2.37.91-.48.38-.8.87-1.02 1.29-.03-.04-.07-.09-.12-.14.18-.14.34-.3.47-.48.55-.5 1.11-1.45.75-3.2-.05-.25-.07-.25-.13-.5-.89-4.05-4.38-6.77-6.91-7.76.73.44 1.36.91 1.91 1.4-3.22-1.75-6.23-1.08-6.24 1.61-1.76-2.93-2.41-5.06-2.54-5.52.06.52.29 2.31 1.39 5.01.72 1.75 1.55 3.3 2.16 4.33-2.97-.27-5.4 1.1-6.16 4.49-3.06-6.62-6.91-11.34-10.27-13.83 2.12 1.97 4.07 4.81 5.2 6.55 3.13 4.79 4.66 8.92 4.71 8.97.03.04.08.08.12.12 0 .15-.01.29-.01.44 0 0-.04 2.37-1.21 4.41-.55.98-1.35 1.88-2.56 2.4.17-.43.3-.93.33-1.52-.54.61-1.34 1.33-3.26 1.89-1.98.59-1.86.8-4.05 1.05.43.2 3.06 1.47 5 .7.13-.05.31-.14.53-.29.13.11.27.19.42.25 0 0 .23.09.62.2.03.11.08.21.14.31 2.68 4.21 6.56 7.93 10.35 10.42 6.08 4.01 11.82 4.79 12.66.11zM107.01 229c-.09-.09-.19-.17-.28-.25.33-.48.33-1.32-.09-2.26-.62-1.44-1.95-2.57-2.96-2.54-.85.04-1.21.9-.9 2.05-.29-.14-.57-.26-.84-.38-.64-1.75-.17-3.18 1.21-3.24 1.47-.05 3.27 1.47 4.09 3.35.64 1.44.51 2.72-.24 3.27zm-7.03-7.54c.83-.81 2.68-.69 2.82-.67 1.55.16 2.83.95 3.79 1.79.23.44.43.86.59 1.26-1.26-1.55-3.02-2.58-4.47-2.53-1.75.07-2.57 1.72-1.95 3.86h-.02c-.35-.41-.9-1.11-1.61-2.12l-.02-.02c.09-.4.31-1.01.88-1.56zm-7.07 15.7c1.31-2.31 1.35-4.96 1.35-4.96.05-4.95 3.16-6.53 6.89-5.26 3.84 1.31 8.1 5.49 10.16 11.61.95 2.8.19 6.43-.26 8.14-9.76-8.27-15.12-7.47-15.12-7.47h-.06c-1.9.43-3.66.41-5.07.25.93-.62 1.62-1.44 2.11-2.33zm14.48 12.18c-.6-.19-2.22-.76-4.34-1.89-3.35-1.8-6.42-4.22-8.5-6.14.74-.06 1.52-.16 2.32-.33.28-.02 3.31-.13 8.76 3.43.03.07.04.13.05.18.24.81.4 1.62.7 2.43.28.78.68 1.54 1.01 2.31zm-17.13-8.24c.76.13 1.64.22 2.62.25.91.84 3.35 2.98 6.61 5.05.64.41 4.4 2.8 8.26 4.07.36.13.53-.05.57-.17.09-.22 0-.25-.53-2.49-.25-1-.42-1.73-.54-2.26.35.25.7.51 1.06.8.53 1.93.98 3.8 1.12 4.36-.48 2.24-2.59 2.62-5.26 1.76-4.41-1.41-10.24-5.91-13.92-11.37zm13-29.65c-.08-.08-1.01-1.04-2.22-1.91-4.32-3.13-8.25-1.63-6.38 3.19 1.2-1.51 2.74-2.59 3.21-2.75 1.69-.62 4.83 1.18 5.39 1.47m-22.39 21.26c-.41.24-.8.57-1.16 1 1.81-.21 3.12.03 4.35.09 1.47.07 2.26.09 4.13.92-.32-.32-.65-.61-1-.88 1.13-.34 1.78-1.34 1.8-2.68.06-.31.08-.71 0-1.14-.86-4.39-5.92-10.03-9.66-10.55 1.08.36 2.24 1.21 3.34 2.31-3.2-1.07-6.29.89-6.2 4.03a37 37 0 0 1-1.32-3.16c.22 3.87 2.55 7.25 4.55 9.1.4.37.81.7 1.17.96m1.86-7.61c1.52 0 3.27 1.27 4.29 2.96q.24.54.42 1.05c.18.51.31.94.41 1.31.12 1.45-.62 2.49-2 2.49h-.11c-.66-.35-1.33-.59-2.01-.7a6.97 6.97 0 0 1-2.65-3.2c-.85-2.13-.14-3.91 1.66-3.91zm-5.1 2.88c-.2-2.04 1.08-3.48 3.37-3.66-1.38.69-1.86 2.5-.99 4.68.48 1.21 1.32 2.33 2.28 3.18q-.255.045-.51.12c-.76-.46-2.27-1.52-3.72-3.64-.15-.22-.28-.45-.43-.69zm8.74 4.22c1.2 0 1.68-1.22 1.09-2.72s-2.05-2.71-3.25-2.71-1.68 1.22-1.09 2.71 2.06 2.72 3.26 2.72zm-10.75-18.22c1.99-.72 3.3-.56 3.01-.72-2.84-1.52-4.6-1.54-5.52-1.45-3.12.32-4.41 3.76-1.9 8.9 0-.1-.19-2.97 1.36-4.8.79-.91 2.63-1.77 3.05-1.93m-34.2-42.37c-1.32 0-1.97 1.09-1.45 2.4s2.04 2.4 3.36 2.4 1.98-1.08 1.45-2.4-2.03-2.4-3.36-2.4m1.49 3.75c-.74 0-1.59-.6-1.88-1.35s.08-1.34.81-1.34 1.59.6 1.88 1.34-.06 1.35-.81 1.35m-8.14-3.75c-1.32 0-1.96 1.09-1.44 2.4s2.03 2.4 3.35 2.4 1.98-1.08 1.45-2.4-2.03-2.4-3.36-2.4m1.5 3.75c-.74 0-1.58-.6-1.88-1.35s.07-1.34.8-1.34 1.59.6 1.88 1.34-.06 1.35-.81 1.35zm-8.13-3.75c-1.33 0-1.97 1.09-1.45 2.4s2.03 2.4 3.36 2.4 1.97-1.08 1.44-2.4-2.03-2.4-3.35-2.4m1.5 3.75c-.75 0-1.59-.6-1.88-1.35s.07-1.34.81-1.34 1.58.6 1.87 1.34-.06 1.35-.8 1.35" clip-rule="evenodd"></path>
      <path fill="#C5C5C5" fill-rule="evenodd" d="M127.519 426.01a7.3 7.3 0 0 1-1.76-2.47l-49.27-112.99a9.24 9.24 0 0 1 1.06-9.22l.56-.76a10.76 10.76 0 0 1 8.62-4.32h157.51c4.34 0 8.28 2.58 10 6.57l47.36 109.64h96.73c2.89 0 5.26 2.31 5.32 5.2l.03.92a6.78 6.78 0 0 1-5.88 6.9l-96.26 12.94c-.53.07-1.05.11-1.59.11h-164.91c-2.02 0-3.96-.8-5.39-2.23a7.64 7.64 0 0 1-2.23-5.38v-4.32q0-.3.09-.57z" clip-rule="evenodd"></path>
      <path fill="#000" d="M142.15 435.73s-5.19-2.65-4.72-8.49l-5.76-1.25 111.78-119.6s4.53-.29 6.79-5.86l52.64 117.94s1.71 1.5-1.09 5.58l98.5-8.15s5.15 4.37-1.22 7.97l-95.98 13.79-160.94-1.94z" opacity="0.25"></path>
      <path fill="#000" fill-rule="evenodd" d="M127.519 426.01a7.3 7.3 0 0 1-1.76-2.47l-49.27-112.99a9.24 9.24 0 0 1 1.06-9.22l.56-.76a10.76 10.76 0 0 1 8.62-4.32h157.51c4.34 0 8.28 2.58 10 6.57l47.36 109.64h96.73c2.89 0 5.26 2.31 5.32 5.2l.03.92a6.78 6.78 0 0 1-5.88 6.9l-96.26 12.94c-.53.07-1.05.11-1.59.11h-164.91c-2.02 0-3.96-.8-5.39-2.23a7.64 7.64 0 0 1-2.23-5.38v-4.32q0-.3.09-.57zm175.64-9.94.14.34c1.33 3.07.56 6.64-1.92 8.89l-.23.21a9.5 9.5 0 0 1-6.39 2.47h-162.24c-.5 0-1-.05-1.49-.15v3.08c0 1.06.43 2.08 1.18 2.83.74.75 1.77 1.17 2.83 1.17h164.91c.38 0 .74-.02 1.11-.07l96.26-12.94a3.18 3.18 0 0 0 2.75-3.23l-.03-.92c-.02-.71-.46-1.3-1.08-1.55l.06.69-90.33 6.56 65.34-7.37h-70.88zm-58.91-116.21H86.739c-2.25 0-4.37 1.06-5.72 2.87l-.56.76a5.65 5.65 0 0 0-.65 5.62l49.28 112.99a3.76 3.76 0 0 0 3.45 2.26h162.24c1.46 0 2.88-.55 3.96-1.53l.23-.21a4.2 4.2 0 0 0 1.04-4.78l-49.07-113.59a7.26 7.26 0 0 0-6.68-4.39zm49.95 118.11c-9.71-20.77-12.59-26.26-30.99-67.53-16.11-36.11-15.99-36.16-17.47-39.26-1.63-3.4-4.86-4.2-6.49-4.19l-101.01.32q-27.03.04-54.05-.8c4.51-.16 9.01-.37 13.52-.52 13.64-.47 21.42-.54 23.28-.55 10.94-.09 57.76-.34 118.12-.52a9.32 9.32 0 0 1 8.55 5.55c22.22 50.21 28.47 64.57 32.21 73.39 7.44 17.5 13.2 31.43 14.33 34.11" clip-rule="evenodd"></path>
      <path fill="#000" d="M190.101 380.52c-2.24-1.07-4.45-1.87-6.57-3.11a34.9 34.9 0 0 1-9.29-7.81c-.06-.07-.15-.14-.13-.21.03-.08.15-.01.23 0 1.63.39 3.31.46 4.5.16-1.17-.11-2.3-.29-3.46-.6-.67-.18-1.33-.4-2-.66-.18-.07-.31-.17-.44-.31-1.41-1.6-2.51-3.31-3.4-5.09-.6-1.21-1.08-2.42-1.47-3.64-.39-1.25-.67-2.49-.78-3.71 0-.07-.03-.15.03-.2.17.12.26.28.37.43.79.99 1.64 1.93 2.67 2.72 1.1.84 2.26 1.4 3.55 1.64-.64-.39-1.22-.74-1.79-1.12-1.8-1.2-3.17-2.73-4.24-4.48-.28-.46-.42-.87-.42-1.33 0-2.01.21-3.92 1-5.57.72-1.49 1.84-2.58 3.6-3.04 1.03-.27 2.17-.27 3.39-.02.23.05.43.15.63.32.9.77 1.5 1.69 2.05 2.63.61 1.07 1.09 2.16 1.51 3.25 1.18 3.07 1.81 6.08 2.29 9.07.02.14-.01.22-.11.29-.22.14-.43.3-.66.43-.22.13-.47.23-.73.36.38.07.68.02.98-.02.21-.03.41-.09.6-.15.15-.05.24-.03.3.17.51 1.48 1.05 2.97 1.53 4.45.45 1.4.95 2.8 1.51 4.2.52 1.3 1.07 2.6 1.81 3.87.11.2.15.37.14.55-.05.57-.06 1.15 0 1.76.62-.7 1.12-1.49 1.42-2.44.13.15.11.23.11.31.13 1.95.96 3.85 2.45 5.7.34.42.79.74 1.21 1.08 1.32 1.05 2.65 2.09 4.05 3.02.62.41 1.23.85 1.76 1.4.21.21.38.44.5.69.2.43.03.67-.41.57q-.495-.105-.99-.36c0-.09.08-.06.13-.06.35-.05.43-.36.17-.71a1.6 1.6 0 0 0-.44-.38c-3.36-2.2-6.54-4.62-9.39-7.48-2.82-2.82-5.09-5.89-6.78-9.21-.58-1.15-1.1-2.3-1.57-3.46-.91-2.25-1.5-4.48-1.97-6.71-.33-1.58-.56-3.13-.76-4.69-.09-.71-1.05-1.42-1.69-1.27-.34.08-.45.33-.39.69.14.85.28 1.69.43 2.54.24 1.38.56 2.77.93 4.16q.66 2.445 1.65 4.89c.83 2.03 1.84 4.03 3.05 6 2.28 3.7 5.22 6.98 8.67 9.93z"></path>
      <path fill="#fff" d="M124.29 407.59c-14.8-32.12-30.6-66.82-44.46-99.34-.95-3.9 2.21-8.02 6.22-8.1l3.85-.05c29.37-.13 61.92-.2 91.45.01 10.16.14 20.32.19 30.49.4-10.16.35-20.32.54-30.48.81-29.59.63-62.03.96-91.45 1.25l-3.77.02c-2.85.03-4.93 3.24-3.78 5.86 13.87 32.07 28.74 66.76 41.91 99.13z" style="mix-blend-mode:overlay"></path>
   </g>
   <defs>
      <linearGradient id="remote-worker_svg__b" x1="254.639" x2="418.039" y1="161.43" y2="-32.26" gradientUnits="userSpaceOnUse">
         <stop offset="0.24" stop-color="#FFD18E"></stop>
         <stop offset="1" stop-color="#FFA955"></stop>
      </linearGradient>
      <linearGradient id="remote-worker_svg__c" x1="298.41" x2="461.84" y1="198.36" y2="4.64" gradientUnits="userSpaceOnUse">
         <stop offset="0.24" stop-color="#FFD18E"></stop>
         <stop offset="1" stop-color="#FFA955"></stop>
      </linearGradient>
      <linearGradient id="remote-worker_svg__d" x1="348.63" x2="286.61" y1="134.85" y2="194.96" gradientUnits="userSpaceOnUse">
         <stop offset="0.09" stop-color="#FFD18E"></stop>
         <stop offset="0.22" stop-color="#C9A575"></stop>
         <stop offset="0.35" stop-color="#9A8061"></stop>
         <stop offset="0.47" stop-color="#766351"></stop>
         <stop offset="0.58" stop-color="#5D4E45"></stop>
         <stop offset="0.68" stop-color="#4D423E"></stop>
         <stop offset="0.76" stop-color="#483E3C"></stop>
      </linearGradient>
      <linearGradient id="remote-worker_svg__e" x1="299.051" x2="295.561" y1="115.34" y2="180.9" gradientUnits="userSpaceOnUse">
         <stop offset="0.09" stop-color="#FFD18E"></stop>
         <stop offset="0.22" stop-color="#C9A575"></stop>
         <stop offset="0.35" stop-color="#9A8061"></stop>
         <stop offset="0.47" stop-color="#766351"></stop>
         <stop offset="0.58" stop-color="#5D4E45"></stop>
         <stop offset="0.68" stop-color="#4D423E"></stop>
         <stop offset="0.76" stop-color="#483E3C"></stop>
      </linearGradient>
      <linearGradient id="remote-worker_svg__f" x1="326.53" x2="497.3" y1="338.36" y2="367.2" gradientUnits="userSpaceOnUse">
         <stop offset="0.24" stop-color="#FFD18E"></stop>
         <stop offset="1" stop-color="#FFA955"></stop>
      </linearGradient>
      <linearGradient id="remote-worker_svg__g" x1="325.051" x2="495.821" y1="347.15" y2="375.99" gradientUnits="userSpaceOnUse">
         <stop offset="0.24" stop-color="#FFD18E"></stop>
         <stop offset="1" stop-color="#FFA955"></stop>
      </linearGradient>
      <linearGradient id="remote-worker_svg__h" x1="328.89" x2="499.661" y1="324.39" y2="353.24" gradientUnits="userSpaceOnUse">
         <stop offset="0.24" stop-color="#FFD18E"></stop>
         <stop offset="1" stop-color="#FFA955"></stop>
      </linearGradient>
      <linearGradient id="remote-worker_svg__i" x1="65.3" x2="211.67" y1="204.13" y2="368.16" gradientUnits="userSpaceOnUse">
         <stop offset="0.24" stop-color="#FFD18E"></stop>
         <stop offset="1" stop-color="#FFA955"></stop>
      </linearGradient>
      <linearGradient id="remote-worker_svg__j" x1="72.269" x2="218.639" y1="197.91" y2="361.94" gradientUnits="userSpaceOnUse">
         <stop offset="0.24" stop-color="#FFD18E"></stop>
         <stop offset="1" stop-color="#FFA955"></stop>
      </linearGradient>
      <linearGradient id="remote-worker_svg__k" x1="78.009" x2="224.379" y1="192.79" y2="356.82" gradientUnits="userSpaceOnUse">
         <stop offset="0.24" stop-color="#FFD18E"></stop>
         <stop offset="1" stop-color="#FFA955"></stop>
      </linearGradient>
      <clipPath id="remote-worker_svg__a">
         <path fill="#fff" d="M0 0h514.82v456.6H0z"></path>
      </clipPath>
      <filter id="remote-worker_svg__l" width="163.033" height="144.48" x="7.088" y="154.09" color-interpolation-filters="sRGB" filterUnits="userSpaceOnUse">
         <feFlood flood-opacity="0" result="BackgroundImageFix"></feFlood>
         <feColorMatrix in="SourceAlpha" result="hardAlpha" values="0 0 0 0 0 0 0 0 0 0 0 0 0 0 0 0 0 0 127 0"></feColorMatrix>
         <feOffset></feOffset>
         <feGaussianBlur stdDeviation="7"></feGaussianBlur>
         <feColorMatrix values="0 0 0 0 0.741176 0 0 0 0 0.937255 0 0 0 0 0.839216 0 0 0 0.9 0"></feColorMatrix>
         <feBlend in2="BackgroundImageFix" result="effect1_dropShadow_3146_32023"></feBlend>
         <feBlend in="SourceGraphic" in2="effect1_dropShadow_3146_32023" result="shape"></feBlend>
      </filter>
   </defs>
</svg>